<svg width="1920" height="11858" viewBox="0 0 1920 11858" fill="none" xmlns="http://www.w3.org/2000/svg">
<g clip-path="url(#clip0_856_1579)">
<rect width="1920" height="11858" fill="#0D0215"/>
<rect x="-55" y="1117" width="2198" height="8001" fill="#0D0215"/>
<rect x="-84" y="1476" width="2198" height="9145.37" fill="#0D0215"/>
<rect y="8004.97" width="1920" height="4947.02" rx="90" fill="#1A062A"/>
<rect y="5381" width="1920" height="4328" rx="90" fill="#1A062A"/>
<g opacity="0.32" filter="url(#filter0_f_856_1579)">
<circle cx="632.187" cy="632.187" r="632.187" transform="matrix(-1 0 0 1 1456.28 10478)" fill="url(#paint0_radial_856_1579)" fill-opacity="0.8"/>
</g>
<g filter="url(#filter1_f_856_1579)">
<circle cx="1386" cy="8641" r="139" fill="url(#paint1_radial_856_1579)" fill-opacity="0.8"/>
</g>
<g style="mix-blend-mode:saturation">
<path d="M1248.53 8763.88C1251.99 8769.95 1256.05 8775.02 1260.86 8778.53C1262.79 8778.12 1265.21 8777.26 1267.97 8776.06C1265.53 8776.89 1263.15 8777.71 1260.86 8778.53C1259.7 8777.24 1258.58 8775.96 1257.5 8774.72C1257.34 8774.53 1257.17 8774.34 1257.01 8774.15C1256.34 8773.38 1255.69 8772.61 1255.04 8771.86C1252.69 8769.08 1250.53 8766.43 1248.53 8763.88Z" fill="#FBCC70"/>
<path d="M1333.24 8799.17C1328.9 8799.23 1325.32 8795.76 1325.26 8791.41C1325.21 8787.06 1328.68 8783.49 1333.03 8783.43C1337.38 8783.37 1340.95 8786.85 1341.01 8791.19C1341.07 8795.54 1337.59 8799.12 1333.24 8799.17ZM1214.99 8723.11C1210.64 8723.17 1207.07 8719.69 1207.01 8715.34C1206.95 8710.99 1210.43 8707.42 1214.78 8707.36C1219.12 8707.3 1222.7 8710.78 1222.76 8715.13C1222.81 8719.47 1219.34 8723.05 1214.99 8723.11ZM1197.29 8710.21C1192.94 8710.27 1189.37 8706.79 1189.31 8702.45C1189.25 8698.1 1192.73 8694.52 1197.08 8694.47C1201.43 8694.41 1205 8697.88 1205.06 8702.23C1205.12 8706.58 1201.64 8710.15 1197.29 8710.21ZM1232.47 8719.8C1228.12 8719.86 1224.54 8716.39 1224.49 8712.04C1224.43 8707.69 1227.9 8704.12 1232.25 8704.06C1236.6 8704 1240.17 8707.48 1240.23 8711.82C1240.29 8716.17 1236.81 8719.75 1232.47 8719.8ZM1221.33 8706.38C1216.98 8706.44 1213.41 8702.96 1213.35 8698.62C1213.29 8694.27 1216.77 8690.7 1221.12 8690.64C1225.47 8690.58 1229.04 8694.05 1229.1 8698.4C1229.16 8702.75 1225.68 8706.32 1221.33 8706.38ZM1348.93 8789.19C1344.58 8789.25 1341.01 8785.78 1340.95 8781.43C1340.89 8777.08 1344.37 8773.51 1348.71 8773.45C1353.06 8773.39 1356.64 8776.87 1356.69 8781.21C1356.75 8785.56 1353.28 8789.14 1348.93 8789.19ZM1350.57 8812.82C1346.22 8812.88 1342.65 8809.4 1342.59 8805.06C1342.53 8800.71 1346.01 8797.13 1350.36 8797.08C1354.71 8797.02 1358.28 8800.49 1358.34 8804.84C1358.4 8809.19 1354.92 8812.76 1350.57 8812.82ZM1259.87 8705.86C1255.52 8705.92 1251.95 8702.44 1251.89 8698.09C1251.83 8693.75 1255.31 8690.17 1259.66 8690.11C1264.01 8690.05 1267.58 8693.53 1267.64 8697.88C1267.7 8702.23 1264.22 8705.8 1259.87 8705.86ZM1246.22 8700.35C1241.87 8700.41 1238.3 8696.94 1238.24 8692.59C1238.18 8688.24 1241.66 8684.67 1246.01 8684.61C1250.35 8684.55 1253.93 8688.03 1253.99 8692.37C1254.04 8696.72 1250.57 8700.29 1246.22 8700.35ZM1290.37 8726.02C1286.02 8726.08 1282.45 8722.61 1282.39 8718.26C1282.33 8713.91 1285.81 8710.34 1290.16 8710.28C1294.51 8710.22 1298.08 8713.7 1298.14 8718.04C1298.2 8722.39 1294.72 8725.97 1290.37 8726.02ZM1264.85 8717.61C1260.5 8717.67 1256.93 8714.2 1256.87 8709.85C1256.81 8705.5 1260.29 8701.93 1264.64 8701.87C1268.99 8701.81 1272.56 8705.29 1272.62 8709.63C1272.68 8713.98 1269.2 8717.56 1264.85 8717.61ZM1330.28 8773.13C1325.94 8773.19 1322.36 8769.71 1322.3 8765.36C1322.24 8761.02 1325.72 8757.44 1330.07 8757.38C1334.42 8757.33 1337.99 8760.8 1338.05 8765.15C1338.11 8769.5 1334.63 8773.07 1330.28 8773.13ZM1339.91 8760.9C1335.56 8760.96 1331.99 8757.49 1331.93 8753.14C1331.87 8748.79 1335.35 8745.22 1339.7 8745.16C1344.05 8745.1 1347.62 8748.58 1347.68 8752.92C1347.74 8757.27 1344.26 8760.85 1339.91 8760.9ZM1279.69 8713.47C1275.34 8713.53 1271.77 8710.05 1271.71 8705.71C1271.65 8701.36 1275.13 8697.79 1279.47 8697.73C1283.82 8697.67 1287.4 8701.14 1287.45 8705.49C1287.51 8709.84 1284.04 8713.41 1279.69 8713.47ZM1307.14 8767.39C1302.79 8767.45 1299.22 8763.97 1299.16 8759.62C1299.1 8755.28 1302.58 8751.7 1306.93 8751.64C1311.27 8751.59 1314.85 8755.06 1314.91 8759.41C1314.96 8763.76 1311.49 8767.33 1307.14 8767.39ZM1301.2 8717.12C1296.85 8717.18 1293.28 8713.7 1293.22 8709.36C1293.16 8705.01 1296.64 8701.43 1300.99 8701.37C1305.34 8701.32 1308.91 8704.79 1308.97 8709.14C1309.03 8713.49 1305.55 8717.06 1301.2 8717.12ZM1300.73 8747.34C1296.39 8747.4 1292.81 8743.92 1292.75 8739.57C1292.7 8735.22 1296.17 8731.65 1300.52 8731.59C1304.87 8731.53 1308.44 8735.01 1308.5 8739.36C1308.56 8743.71 1305.08 8747.28 1300.73 8747.34ZM1320 8747.08C1315.66 8747.14 1312.08 8743.66 1312.02 8739.31C1311.97 8734.96 1315.44 8731.39 1319.79 8731.33C1324.14 8731.27 1327.71 8734.75 1327.77 8739.1C1327.83 8743.45 1324.35 8747.02 1320 8747.08ZM1333.14 8791.3L1333.58 8792.71C1312.56 8799.28 1284.72 8794.33 1260.11 8779.81L1260.86 8778.53L1261.61 8777.26C1285.74 8791.5 1312.71 8796.14 1332.7 8789.89L1333.14 8791.3ZM1260.86 8778.53L1262.02 8779.45C1249.14 8795.8 1232.63 8817.66 1190.64 8871.38L1189.48 8870.47L1188.31 8869.56C1230.24 8815.91 1246.84 8793.95 1259.7 8777.62L1260.86 8778.53ZM1260.86 8778.53L1259.99 8779.73C1243.74 8767.85 1223.12 8746.4 1213.47 8715.68L1214.88 8715.23L1216.29 8714.79C1225.69 8744.75 1245.83 8765.72 1261.73 8777.34L1260.86 8778.53ZM1260.86 8778.53L1259.99 8779.73C1251.87 8773.8 1238.26 8762.27 1225.48 8748.41C1212.72 8734.58 1200.64 8718.27 1195.78 8702.78L1197.19 8702.34L1198.59 8701.9C1203.26 8716.75 1214.97 8732.66 1227.65 8746.41C1240.3 8760.12 1253.77 8771.52 1261.73 8777.34L1260.86 8778.53ZM1260.86 8778.53L1259.99 8779.73C1254.95 8776.05 1250.77 8770.79 1247.25 8764.61L1248.53 8763.88L1249.81 8763.15C1253.2 8769.1 1257.14 8773.99 1261.73 8777.34L1260.86 8778.53ZM1248.53 8763.88L1247.25 8764.61C1239.03 8750.17 1234.22 8730.26 1230.91 8712.2L1232.36 8711.93L1233.81 8711.66C1237.12 8729.71 1241.86 8749.17 1249.81 8763.15L1248.53 8763.88ZM1260.86 8778.53L1259.76 8779.52C1258.6 8778.21 1257.47 8776.94 1256.39 8775.69L1257.5 8774.72L1258.62 8773.75C1259.69 8774.99 1260.81 8776.26 1261.96 8777.55L1260.86 8778.53ZM1257.5 8774.72L1256.39 8775.69C1256.22 8775.5 1256.06 8775.31 1255.9 8775.12L1257.01 8774.15L1258.13 8773.19C1258.29 8773.38 1258.45 8773.56 1258.62 8773.75L1257.5 8774.72ZM1257.01 8774.15L1255.9 8775.12C1255.22 8774.34 1254.56 8773.57 1253.92 8772.81L1255.04 8771.86L1256.17 8770.9C1256.81 8771.65 1257.46 8772.42 1258.13 8773.19L1257.01 8774.15ZM1255.04 8771.86L1253.92 8772.81C1251.56 8770.03 1249.38 8767.36 1247.37 8764.79L1248.53 8763.88L1249.69 8762.97C1251.68 8765.51 1253.83 8768.14 1256.17 8770.9L1255.04 8771.86ZM1248.53 8763.88L1247.37 8764.79C1238.18 8753.04 1232.46 8743.25 1228.45 8732.99C1224.44 8722.76 1222.16 8712.13 1219.77 8698.77L1221.23 8698.51L1222.68 8698.25C1225.06 8711.58 1227.3 8721.97 1231.2 8731.92C1235.09 8741.84 1240.64 8751.39 1249.69 8762.97L1248.53 8763.88ZM1348.82 8781.32L1349.43 8782.67C1337.51 8788.03 1320.01 8788.32 1303.3 8786.84C1286.52 8785.35 1270.23 8782.04 1260.55 8779.98L1260.86 8778.53L1261.17 8777.09C1270.82 8779.15 1286.97 8782.42 1303.57 8783.89C1320.24 8785.37 1337.06 8785 1348.22 8779.98L1348.82 8781.32ZM1350.46 8804.95L1351.62 8805.86C1350.26 8807.6 1347.86 8808.62 1345.08 8809.21C1342.25 8809.82 1338.74 8810.03 1334.81 8809.91C1326.94 8809.68 1317.15 8808.12 1307.24 8805.54C1297.33 8802.96 1287.23 8799.33 1278.72 8794.92C1270.26 8790.52 1263.19 8785.25 1259.59 8779.3L1260.86 8778.53L1262.12 8777.77C1265.29 8783.02 1271.77 8787.98 1280.08 8792.29C1288.35 8796.59 1298.23 8800.14 1307.99 8802.68C1317.75 8805.23 1327.3 8806.73 1334.9 8806.96C1338.7 8807.07 1341.95 8806.86 1344.47 8806.33C1347.04 8805.78 1348.59 8804.94 1349.3 8804.03L1350.46 8804.95ZM1260.86 8778.53L1259.99 8779.73C1258.32 8778.51 1256.92 8776.86 1255.75 8774.92L1257.01 8774.15L1258.28 8773.39C1259.3 8775.08 1260.45 8776.41 1261.73 8777.34L1260.86 8778.53ZM1257.01 8774.15L1255.75 8774.92C1252.86 8770.13 1251.19 8763.31 1250.38 8755.81C1249.56 8748.28 1249.59 8739.91 1250.18 8731.91C1250.77 8723.91 1251.92 8716.23 1253.39 8710.07C1254.12 8706.99 1254.93 8704.27 1255.8 8702.06C1256.65 8699.9 1257.61 8698.08 1258.71 8696.96L1259.77 8697.99L1260.82 8699.02C1260.15 8699.71 1259.36 8701.07 1258.55 8703.14C1257.74 8705.18 1256.97 8707.76 1256.26 8710.75C1254.84 8716.73 1253.7 8724.25 1253.12 8732.13C1252.54 8740 1252.52 8748.19 1253.32 8755.5C1254.11 8762.84 1255.72 8769.15 1258.28 8773.39L1257.01 8774.15ZM1260.86 8778.53L1259.99 8779.73C1257.67 8778.04 1255.61 8775.58 1253.79 8772.63L1255.04 8771.86L1256.3 8771.08C1258 8773.83 1259.82 8775.95 1261.73 8777.34L1260.86 8778.53ZM1255.04 8771.86L1253.79 8772.63C1247.78 8762.91 1243.86 8747.01 1242.25 8731.55C1240.64 8716.12 1241.29 8700.7 1244.74 8691.94L1246.11 8692.48L1247.49 8693.02C1244.31 8701.09 1243.59 8715.92 1245.19 8731.25C1246.78 8746.55 1250.64 8761.92 1256.3 8771.08L1255.04 8771.86ZM1260.86 8778.53L1259.4 8778.28C1260.66 8771.05 1265.6 8758.02 1271.41 8745.78C1274.33 8739.63 1277.49 8733.63 1280.55 8728.59C1283.6 8723.59 1286.62 8719.43 1289.28 8717.05L1290.26 8718.15L1291.25 8719.25C1288.93 8721.32 1286.09 8725.17 1283.07 8730.13C1280.07 8735.06 1276.96 8740.96 1274.08 8747.04C1268.28 8759.25 1263.5 8771.97 1262.31 8778.79L1260.86 8778.53ZM1260.86 8778.53L1259.99 8779.73C1258.44 8778.59 1257.2 8777.14 1256.23 8775.46L1257.5 8774.72L1258.78 8773.98C1259.58 8775.36 1260.56 8776.48 1261.73 8777.34L1260.86 8778.53ZM1257.5 8774.72L1256.23 8775.46C1253.61 8770.96 1252.83 8764.72 1253 8758.05C1253.17 8751.34 1254.32 8743.97 1255.79 8737.07C1257.26 8730.15 1259.06 8723.66 1260.53 8718.67C1261.26 8716.18 1261.92 8714.06 1262.41 8712.46C1262.92 8710.81 1263.22 8709.8 1263.3 8709.44L1264.74 8709.74L1266.19 8710.04C1266.08 8710.58 1265.71 8711.77 1265.23 8713.33C1264.74 8714.93 1264.09 8717.03 1263.36 8719.51C1261.9 8724.46 1260.13 8730.87 1258.68 8737.68C1257.23 8744.5 1256.11 8751.67 1255.95 8758.12C1255.78 8764.63 1256.58 8770.2 1258.78 8773.98L1257.5 8774.72ZM1330.18 8765.26L1331.11 8766.4C1321.47 8774.24 1310.25 8776.97 1298.35 8778.09C1292.4 8778.65 1286.24 8778.81 1280 8778.99C1273.74 8779.17 1267.4 8779.37 1261 8780L1260.86 8778.53L1260.71 8777.06C1267.22 8776.42 1273.67 8776.22 1279.92 8776.04C1286.18 8775.86 1292.24 8775.7 1298.07 8775.15C1309.72 8774.05 1320.26 8771.42 1329.25 8764.11L1330.18 8765.26ZM1339.81 8753.03L1340.75 8754.16C1331.37 8762.01 1324.26 8766.92 1313 8770.63C1301.83 8774.31 1286.6 8776.8 1261.04 8780L1260.86 8778.53L1260.67 8777.07C1286.28 8773.87 1301.22 8771.4 1312.07 8767.82C1322.84 8764.28 1329.62 8759.63 1338.86 8751.9L1339.81 8753.03ZM1260.86 8778.53L1259.39 8778.7C1254.99 8740.58 1269.73 8718.55 1278.33 8704.82L1279.58 8705.6L1280.83 8706.38C1272.29 8720.03 1258.04 8741.3 1262.32 8778.36L1260.86 8778.53ZM1307.03 8759.52L1307.84 8760.75C1296.64 8768.06 1281.64 8772.95 1268.44 8777.46L1267.97 8776.06L1267.49 8774.66C1280.82 8770.1 1295.41 8765.34 1306.23 8758.28L1307.03 8759.52ZM1267.97 8776.06L1268.44 8777.46C1266.01 8778.29 1263.64 8779.1 1261.36 8779.92L1260.86 8778.53L1260.36 8777.14C1262.67 8776.32 1265.05 8775.49 1267.49 8774.66L1267.97 8776.06ZM1260.86 8778.53L1259.71 8777.6C1264.28 8772.01 1273.81 8761.24 1282.46 8748.6C1291.14 8735.92 1298.73 8721.65 1299.62 8709.14L1301.09 8709.25L1302.57 8709.35C1301.62 8722.7 1293.61 8737.54 1284.9 8750.27C1276.15 8763.05 1266.48 8773.99 1262 8779.47L1260.86 8778.53ZM1300.63 8739.46L1301.92 8740.18C1291.93 8758.1 1274.39 8773.42 1261.52 8779.85L1260.86 8778.53L1260.2 8777.21C1272.56 8771.04 1289.65 8756.13 1299.34 8738.75L1300.63 8739.46ZM1260.86 8778.53L1260.55 8777.09C1262.34 8776.71 1264.66 8775.89 1267.37 8774.71L1267.97 8776.06L1268.56 8777.41C1265.76 8778.63 1263.24 8779.53 1261.17 8779.98L1260.86 8778.53ZM1267.97 8776.06L1267.37 8774.71C1275.22 8771.28 1285.91 8764.95 1295.76 8758.05C1305.63 8751.14 1314.47 8743.77 1318.73 8738.3L1319.9 8739.2L1321.06 8740.11C1316.51 8745.96 1307.36 8753.53 1297.45 8760.47C1287.52 8767.43 1276.65 8773.87 1268.56 8777.41L1267.97 8776.06Z" fill="#FBCC70"/>
<path d="M1237.22 8658.85C1229.01 8655.59 1222.8 8677.04 1222.2 8691.63L1227.28 8691.84C1235 8684.51 1245.44 8662.12 1237.22 8658.85Z" fill="#FBCC70" stroke="#FBCC70" stroke-width="2.95275"/>
<path d="M1212.62 8659.97C1203.9 8661.46 1209.75 8683.01 1216.82 8695.78L1221.27 8693.32C1224.05 8683.05 1221.33 8658.49 1212.62 8659.97Z" fill="#FBCC70" stroke="#FBCC70" stroke-width="2.95275"/>
<path d="M1363.25 8731.79C1361.58 8723.11 1340.16 8729.41 1327.53 8736.75L1330.09 8741.15C1340.42 8743.71 1364.91 8740.47 1363.25 8731.79Z" fill="#FBCC70" stroke="#FBCC70" stroke-width="2.95275"/>
<path d="M1349.07 8711.65C1343.14 8705.1 1328.11 8721.62 1321.14 8734.45L1325.61 8736.88C1335.77 8733.7 1355.01 8718.2 1349.07 8711.65Z" fill="#FBCC70" stroke="#FBCC70" stroke-width="2.95275"/>
</g>
<g filter="url(#filter2_f_856_1579)">
<circle cx="367" cy="9786" r="139" fill="url(#paint2_radial_856_1579)" fill-opacity="0.8"/>
</g>
<g style="mix-blend-mode:saturation">
<path d="M829.337 11115.6C860.796 11145.9 777.03 11217.6 712.68 11250.1L701.348 11227.7C718.546 11178 797.877 11085.3 829.337 11115.6Z" fill="#FBCC70"/>
<path d="M715.279 11056.4C672.391 11048.2 662.303 11158 672.972 11229.3L697.81 11225.6C728.405 11182.9 758.168 11064.6 715.279 11056.4Z" fill="#FBCC70"/>
<path d="M931.252 11303C915.565 11300.9 913.778 11333.9 914.845 11350.7C925.092 11353.6 946.079 11356.6 948.052 11345.4C950.519 11331.4 950.861 11305.6 931.252 11303Z" fill="#FBCC70"/>
<path d="M1000.33 11347.2C1011.79 11358.1 987.139 11380.1 973.381 11389.8C964.723 11383.6 949.276 11369.1 956.75 11360.6C966.094 11349.9 985.999 11333.5 1000.33 11347.2Z" fill="#FBCC70"/>
<path d="M1015.89 11578C992.445 11582.9 969.519 11567.8 964.682 11544.3C959.845 11520.9 974.928 11498 998.37 11493.1C1021.81 11488.3 1044.74 11503.4 1049.57 11526.8C1054.41 11550.3 1039.33 11573.2 1015.89 11578ZM289.112 11405.7C265.67 11410.5 242.744 11395.5 237.907 11372C233.07 11348.6 248.153 11325.7 271.595 11320.8C295.038 11316 317.963 11331.1 322.8 11354.5C327.637 11377.9 312.554 11400.9 289.112 11405.7ZM191.279 11359.7C167.836 11364.5 144.911 11349.4 140.074 11326C135.237 11302.5 150.319 11279.6 173.762 11274.8C197.204 11269.9 220.129 11285 224.966 11308.5C229.804 11331.9 214.721 11354.8 191.279 11359.7ZM370.781 11373.4C347.339 11378.2 324.414 11363.2 319.577 11339.7C314.74 11316.3 329.822 11293.4 353.265 11288.5C376.707 11283.7 399.632 11298.8 404.469 11322.2C409.306 11345.6 394.224 11368.6 370.781 11373.4ZM304.284 11318.7C280.842 11323.5 257.917 11308.5 253.079 11285C248.242 11261.6 263.325 11238.6 286.767 11233.8C310.21 11229 333.135 11244.1 337.972 11267.5C342.809 11290.9 327.726 11313.9 304.284 11318.7ZM947.906 11558.9C924.464 11563.8 901.539 11548.7 896.702 11525.2C891.864 11501.8 906.947 11478.9 930.389 11474C953.832 11469.2 976.757 11484.3 981.594 11507.7C986.431 11531.2 971.349 11554.1 947.906 11558.9ZM490.684 11280.2C467.242 11285.1 444.317 11270 439.48 11246.6C434.643 11223.1 449.725 11200.2 473.168 11195.3C496.61 11190.5 519.535 11205.6 524.372 11229C529.209 11252.5 514.127 11275.4 490.684 11280.2ZM419.341 11266.3C395.899 11271.1 372.974 11256 368.137 11232.6C363.3 11209.1 378.382 11186.2 401.825 11181.4C425.267 11176.5 448.192 11191.6 453.029 11215.1C457.866 11238.5 442.784 11261.4 419.341 11266.3ZM657.372 11349.6C633.93 11354.4 611.004 11339.3 606.167 11315.9C601.33 11292.5 616.413 11269.5 639.855 11264.7C663.298 11259.9 686.223 11274.9 691.06 11298.4C695.897 11321.8 680.814 11344.8 657.372 11349.6ZM525.78 11332.6C502.337 11337.4 479.412 11322.3 474.575 11298.9C469.738 11275.5 484.821 11252.5 508.263 11247.7C531.705 11242.9 554.63 11257.9 559.468 11281.4C564.305 11304.8 549.222 11327.8 525.78 11332.6ZM955.175 11497.8C931.732 11502.7 908.807 11487.6 903.97 11464.1C899.133 11440.7 914.215 11417.8 937.658 11412.9C961.1 11408.1 984.025 11423.2 988.862 11446.6C993.699 11470.1 978.617 11493 955.175 11497.8ZM939.884 11423.7C916.442 11428.6 893.517 11413.5 888.68 11390C883.843 11366.6 898.925 11343.7 922.368 11338.8C945.81 11334 968.735 11349.1 973.572 11372.5C978.409 11396 963.327 11418.9 939.884 11423.7ZM593.866 11298.7C570.424 11303.5 547.499 11288.4 542.662 11265C537.825 11241.5 552.907 11218.6 576.35 11213.8C599.792 11209 622.717 11224 627.554 11247.5C632.391 11270.9 617.309 11293.8 593.866 11298.7ZM777.247 11534.5C753.804 11539.4 730.879 11524.3 726.042 11500.9C721.205 11477.4 736.288 11454.5 759.73 11449.7C783.172 11444.8 806.097 11459.9 810.935 11483.3C815.772 11506.8 800.689 11529.7 777.247 11534.5ZM701.589 11296.3C678.147 11301.2 655.222 11286.1 650.385 11262.6C645.548 11239.2 660.63 11216.3 684.073 11211.4C707.515 11206.6 730.44 11221.7 735.277 11245.1C740.114 11268.6 725.032 11291.5 701.589 11296.3ZM727.497 11443.3C704.054 11448.1 681.129 11433 676.292 11409.6C671.455 11386.1 686.537 11363.2 709.98 11358.4C733.422 11353.5 756.347 11368.6 761.184 11392.1C766.021 11415.5 750.939 11438.4 727.497 11443.3ZM820.697 11424C797.254 11428.9 774.329 11413.8 769.492 11390.4C764.655 11366.9 779.738 11344 803.18 11339.2C826.622 11334.3 849.547 11349.4 854.385 11372.8C859.222 11396.3 844.139 11419.2 820.697 11424ZM1007.13 11535.6L1010.97 11542.7C963.8 11568.1 884.921 11603 801.159 11625.8C717.752 11648.4 627.838 11659.4 559.576 11635L562.309 11627.4L565.043 11619.7C628.383 11642.3 714.159 11632.5 796.902 11610.1C879.289 11587.7 957.019 11553.3 1003.28 11528.4L1007.13 11535.6ZM562.309 11627.4L569.459 11631.2C464.797 11824.9 385.737 11992.5 232.169 12292.2L224.937 12288.5L217.705 12284.8C370.981 11985.7 450.415 11817.3 555.16 11623.5L562.309 11627.4ZM562.309 11627.4L558.839 11634.7C468.849 11592.2 348.707 11507.3 273.199 11367.1L280.354 11363.3L287.508 11359.4C360.928 11495.7 477.966 11578.5 565.78 11620L562.309 11627.4ZM562.309 11627.4L558.839 11634.7C513.921 11613.5 437.134 11570.3 362.175 11514.9C287.394 11459.7 213.473 11391.8 175.366 11321.1L182.52 11317.2L189.675 11313.4C226.031 11380.9 297.554 11447 371.826 11501.9C445.92 11556.5 521.796 11599.2 565.78 11620L562.309 11627.4ZM562.309 11627.4L558.839 11634.7C512.241 11612.7 472.879 11567.1 439.515 11512.9C406.044 11458.5 377.989 11394.3 354.451 11333.9L362.023 11331L369.595 11328C393.014 11388.1 420.651 11451.2 453.358 11504.4C486.173 11557.7 523.476 11600 565.78 11620L562.309 11627.4ZM562.309 11627.4L557.372 11633.8C471.85 11568.4 418.79 11517.4 379.908 11463.7C341.025 11409.9 316.635 11353.9 287.939 11279.2L295.526 11276.3L303.112 11273.3C331.726 11347.9 355.503 11402.2 393.074 11454.1C430.643 11506 482.321 11555.9 567.246 11620.9L562.309 11627.4ZM939.148 11516.5L943.821 11523.1C891.659 11559.8 820.858 11588.3 751.134 11607.4C681.396 11626.5 611.935 11636.5 562.148 11635.5L562.309 11627.4L562.471 11619.2C610.252 11620.2 678.103 11610.6 746.837 11591.8C815.586 11572.9 884.421 11545 934.474 11509.8L939.148 11516.5ZM562.309 11627.4L558.839 11634.7C533.665 11622.8 514.657 11593.5 500.451 11558.3C486.062 11522.6 475.83 11478.8 469.392 11435.3C462.948 11391.6 460.253 11347.9 461.093 11312C461.512 11294 462.818 11277.9 465.03 11264.7C467.192 11251.7 470.372 11240.6 475.138 11233.3L481.926 11237.8L488.714 11242.3C485.914 11246.5 483.153 11254.8 481.06 11267.3C479.015 11279.6 477.749 11294.9 477.341 11312.3C476.524 11347.2 479.147 11390.1 485.47 11432.9C491.798 11475.7 501.78 11518.1 515.525 11552.2C529.454 11586.8 546.502 11610.9 565.78 11620L562.309 11627.4ZM562.309 11627.4L558.839 11634.7C534.448 11623.2 511.642 11597.4 491.54 11565.1C471.274 11532.5 453.079 11492.3 438.352 11450.4C423.617 11408.5 412.268 11364.7 405.792 11324.9C399.343 11285.3 397.613 11248.9 402.595 11222.3L410.583 11223.8L418.571 11225.3C414.1 11249.2 415.497 11283.3 421.834 11322.3C428.142 11361.1 439.238 11403.9 453.685 11445C468.14 11486.1 485.865 11525.2 505.336 11556.5C524.971 11588 545.72 11610.5 565.78 11620L562.309 11627.4ZM562.309 11627.4L554.184 11627.5C553.528 11591.1 565.361 11523.3 582.125 11458.5C590.543 11425.9 600.281 11393.9 610.469 11366.5C620.578 11339.4 631.387 11316.3 642.153 11302.2L648.614 11307.1L655.074 11312.1C645.85 11324.2 635.717 11345.4 625.697 11372.2C615.756 11398.9 606.178 11430.4 597.859 11462.5C581.149 11527.1 569.82 11593.2 570.434 11627.2L562.309 11627.4ZM562.309 11627.4L558.839 11634.7C533.239 11622.6 518.425 11594.5 509.827 11561.8C501.133 11528.8 498.211 11489.1 498.087 11450.5C497.962 11411.9 500.65 11374 503.376 11344.6C504.739 11329.9 506.115 11317.3 507.155 11307.8C508.23 11297.9 508.866 11292 508.896 11290L517.021 11290.1L525.147 11290.3C525.101 11293.3 524.317 11300.3 523.312 11309.5C522.272 11319 520.909 11331.5 519.559 11346.1C516.857 11375.2 514.217 11412.5 514.339 11450.5C514.462 11488.5 517.363 11526.6 525.543 11557.7C533.818 11589.1 546.929 11611.1 565.78 11620L562.309 11627.4ZM946.416 11455.4L952.639 11460.6C913.104 11507.7 846.069 11542.2 774.715 11569.4C703.182 11596.6 625.683 11617.1 564.617 11635.1L562.309 11627.4L560.001 11619.6C621.724 11601.3 698.164 11581.1 768.93 11554.2C839.875 11527.2 903.499 11493.9 940.193 11450.2L946.416 11455.4ZM931.126 11381.3L937.422 11386.4C899.718 11432.6 867.413 11475.3 814.03 11516.1C760.601 11556.9 686.426 11595.6 564.821 11635.1L562.309 11627.4L559.797 11619.6C680.331 11580.4 752.669 11542.5 804.165 11503.2C855.709 11463.8 886.742 11422.8 924.829 11376.2L931.126 11381.3ZM562.309 11627.4L554.558 11629.8C497.573 11448.7 548.599 11328 577.531 11253.3L585.108 11256.2L592.685 11259.2C563.975 11333.3 514.846 11449.5 570.061 11624.9L562.309 11627.4ZM768.488 11492.1L774.133 11497.9C717.981 11552.2 632.535 11595.2 566.448 11634.3L562.309 11627.4L558.171 11620.4C625.911 11580.3 708.506 11538.7 762.844 11486.3L768.488 11492.1ZM562.309 11627.4L555.16 11623.5C572.122 11592.1 608.247 11531 638.398 11461.7C668.661 11392.2 692.078 11316.1 684.762 11254.8L692.831 11253.9L700.9 11252.9C708.768 11318.8 683.705 11398.3 653.301 11468.2C622.784 11538.4 586.056 11600.5 569.459 11631.2L562.309 11627.4ZM718.738 11400.8L726.456 11403.4C694.688 11499.7 623.827 11590.5 567.247 11633.8L562.309 11627.4L557.372 11620.9C611.414 11579.6 680.301 11491.4 711.021 11398.3L718.738 11400.8ZM562.309 11627.4L559.139 11619.9C573.307 11613.9 593.455 11600.5 616.664 11582.1C639.711 11563.8 665.262 11541.1 690.14 11516.7C740.149 11467.8 786.481 11413.6 804.699 11377.9L811.938 11381.6L819.178 11385.3C799.665 11423.6 751.645 11479.3 701.503 11528.4C676.306 11553 650.331 11576.2 626.757 11594.8C603.344 11613.4 581.773 11627.9 565.48 11634.8L562.309 11627.4Z" fill="#FBCC70"/>
</g>
<path d="M-147.245 7652.85L-173.184 8056.86C-173.184 8110.12 -78.6794 8282.59 266.405 8282.59C379.528 8282.59 201.656 8532.73 502.917 8631.91C440.581 8718.06 405 9094.5 -3.60834 8898.13C-234.065 8787.38 -206.119 9430.27 -147.616 9692.45C-89.1126 9954.64 -10.8736 9808.37 95.8969 9820.71C202.667 9833.06 399.102 9623.79 450.915 9661.85C502.728 9699.9 502.967 9798.84 538.419 9801.28C573.872 9803.72 586.888 9766.29 622.424 9766.3C657.96 9766.31 684.523 9797 721.929 9820.71C759.335 9844.43 780.688 9875.32 825.934 9897.96C871.179 9920.6 931.698 9894.32 973.442 9936.82C1015.18 9979.32 811.651 10010.2 721.929 10006.8C632.206 10003.4 552.897 9924.11 502.917 9936.82C452.938 9949.54 439.033 9988.23 390.912 10006.8C342.791 10025.3 221.303 9995.23 139.899 10006.8C58.4957 10018.3 10.2205 10024.5 -63.6112 10060.7C-137.443 10096.9 -217.514 10968.1 -91.6126 11013.9C34.2889 11059.7 204.735 10984.1 251.405 11013.9C298.074 11043.7 253.086 11282.5 321.999 11282.5C390.912 11282.5 383.411 11091.1 502.917 11013.9C622.424 10936.7 687.934 10829.1 825.934 10960C963.933 11090.8 881.496 11515 973.442 11515C1065.39 11515 1182.73 10958.1 1248.46 10960C1314.19 10961.8 1315.47 11133.1 1348 11115C1380.52 11096.8 1463.97 10936.7 1463.97 10936.7C1463.97 10936.7 1404.96 11456 1463.97 11456C1522.97 11456 1585.56 10925.7 1631.47 10913.3C1677.39 10901 1703.56 10933.1 1750.98 10936.7C1798.4 10940.2 2002.99 10917.4 2118 10820.5C2233.01 10723.7 1913.41 9955.34 1846.99 9936.82C1780.56 9918.31 1704.05 9967.48 1671.48 9917.39C1638.91 9867.3 1665.64 9818.06 1695.48 9766.3C1725.32 9714.54 1795.71 9712.2 1846.99 9661.85C1898.26 9611.49 2071.51 9164.34 1846.99 8898.13C1622.46 8631.91 1407.96 8863.15 973.442 8863.15C538.919 8863.15 678.727 8717.87 697.928 8667.14C736.574 8670.13 779.112 8671.73 825.934 8671.73C1555.97 8671.73 1157.45 8478.38 1522.97 8478.38C1888.49 8478.38 1806.51 8056.86 1814.79 8056.86C1814.79 8056.86 1924.02 7563.14 1848.64 7577.66C1773.25 7592.18 1753.86 7650.65 1685.13 7684.05C1616.4 7717.46 1248.39 7707.37 1021.6 7700.09C794.799 7692.8 514.76 7699.94 442.567 7652.85C370.373 7605.75 316.271 7482.28 284.059 7500.9C251.846 7519.52 255.5 7551.37 229.556 7577.66C203.611 7603.94 -173.183 7604.56 -173.183 7604.56C-194.256 7604.56 -147.245 7652.85 -147.245 7652.85Z" fill="#0D0215"/>
<g opacity="0.24" filter="url(#filter3_f_856_1579)">
<circle cx="168" cy="168" r="168" transform="matrix(1 0 0 -1 1781 3870)" fill="url(#paint3_radial_856_1579)" fill-opacity="0.8"/>
</g>
<g opacity="0.83" filter="url(#filter4_f_856_1579)">
<circle cx="444.5" cy="1424.5" r="342.5" fill="url(#paint4_radial_856_1579)" fill-opacity="0.8"/>
</g>
<g filter="url(#filter5_f_856_1579)">
<circle cx="1947.5" cy="2942.5" r="525.5" fill="url(#paint5_radial_856_1579)" fill-opacity="0.8"/>
</g>
<g filter="url(#filter6_f_856_1579)">
<circle cx="1195.5" cy="2888.5" r="525.5" fill="url(#paint6_radial_856_1579)" fill-opacity="0.8"/>
</g>
<g opacity="0.54" filter="url(#filter7_f_856_1579)">
<circle cx="557.5" cy="5454.5" r="612.5" fill="url(#paint7_radial_856_1579)" fill-opacity="0.8"/>
</g>
<g opacity="0.92" filter="url(#filter8_f_856_1579)">
<circle cx="29" cy="3362" r="199" fill="url(#paint8_radial_856_1579)" fill-opacity="0.8"/>
</g>
<g filter="url(#filter9_f_856_1579)">
<circle cx="156" cy="6411" r="139" fill="url(#paint9_radial_856_1579)" fill-opacity="0.8"/>
</g>
<g filter="url(#filter10_f_856_1579)">
<circle cx="571" cy="7370" r="139" fill="url(#paint10_radial_856_1579)" fill-opacity="0.8"/>
</g>
<g filter="url(#filter11_f_856_1579)">
<circle cx="1810" cy="6085" r="139" fill="url(#paint11_radial_856_1579)" fill-opacity="0.8"/>
</g>
<g filter="url(#filter12_f_856_1579)">
<circle cx="929.5" cy="2174.5" r="227.5" fill="url(#paint12_radial_856_1579)" fill-opacity="0.8"/>
</g>
<g filter="url(#filter13_f_856_1579)">
<circle cx="1775.74" cy="7337.74" r="103.346" transform="rotate(-9.33228 1775.74 7337.74)" fill="url(#paint13_radial_856_1579)" fill-opacity="0.8"/>
</g>
<g style="mix-blend-mode:saturation">
<path d="M1948 7527.88C1944.55 7533.95 1940.48 7539.02 1935.67 7542.53C1933.74 7542.12 1931.32 7541.26 1928.57 7540.06C1931 7540.89 1933.38 7541.71 1935.67 7542.53C1936.83 7541.24 1937.95 7539.96 1939.03 7538.72C1939.19 7538.53 1939.36 7538.34 1939.52 7538.15C1940.19 7537.38 1940.84 7536.61 1941.49 7535.86C1943.84 7533.08 1946 7530.43 1948 7527.88Z" fill="#FBCC70"/>
<path d="M1863.29 7563.17C1867.64 7563.23 1871.21 7559.76 1871.27 7555.41C1871.33 7551.06 1867.85 7547.49 1863.5 7547.43C1859.15 7547.37 1855.58 7550.85 1855.52 7555.19C1855.46 7559.54 1858.94 7563.12 1863.29 7563.17ZM1981.54 7487.11C1985.89 7487.17 1989.46 7483.69 1989.52 7479.34C1989.58 7474.99 1986.1 7471.42 1981.76 7471.36C1977.41 7471.3 1973.84 7474.78 1973.78 7479.13C1973.72 7483.47 1977.19 7487.05 1981.54 7487.11ZM1999.24 7474.21C2003.59 7474.27 2007.16 7470.79 2007.22 7466.45C2007.28 7462.1 2003.8 7458.52 1999.45 7458.47C1995.1 7458.41 1991.53 7461.88 1991.47 7466.23C1991.41 7470.58 1994.89 7474.15 1999.24 7474.21ZM1964.07 7483.8C1968.41 7483.86 1971.99 7480.39 1972.05 7476.04C1972.1 7471.69 1968.63 7468.12 1964.28 7468.06C1959.93 7468 1956.36 7471.48 1956.3 7475.82C1956.24 7480.17 1959.72 7483.75 1964.07 7483.8ZM1975.2 7470.38C1979.55 7470.44 1983.12 7466.96 1983.18 7462.62C1983.24 7458.27 1979.76 7454.7 1975.41 7454.64C1971.06 7454.58 1967.49 7458.05 1967.43 7462.4C1967.37 7466.75 1970.85 7470.32 1975.2 7470.38ZM1847.6 7553.19C1851.95 7553.25 1855.52 7549.78 1855.58 7545.43C1855.64 7541.08 1852.17 7537.51 1847.82 7537.45C1843.47 7537.39 1839.9 7540.87 1839.84 7545.21C1839.78 7549.56 1843.25 7553.14 1847.6 7553.19ZM1845.96 7576.82C1850.31 7576.88 1853.88 7573.4 1853.94 7569.06C1854 7564.71 1850.52 7561.13 1846.17 7561.08C1841.83 7561.02 1838.25 7564.49 1838.19 7568.84C1838.14 7573.19 1841.61 7576.76 1845.96 7576.82ZM1936.66 7469.86C1941.01 7469.92 1944.58 7466.44 1944.64 7462.09C1944.7 7457.75 1941.22 7454.17 1936.87 7454.11C1932.52 7454.05 1928.95 7457.53 1928.89 7461.88C1928.83 7466.23 1932.31 7469.8 1936.66 7469.86ZM1950.31 7464.35C1954.66 7464.41 1958.23 7460.94 1958.29 7456.59C1958.35 7452.24 1954.87 7448.67 1950.53 7448.61C1946.18 7448.55 1942.6 7452.03 1942.55 7456.37C1942.49 7460.72 1945.96 7464.29 1950.31 7464.35ZM1906.16 7490.02C1910.51 7490.08 1914.08 7486.61 1914.14 7482.26C1914.2 7477.91 1910.72 7474.34 1906.37 7474.28C1902.03 7474.22 1898.45 7477.7 1898.39 7482.04C1898.34 7486.39 1901.81 7489.97 1906.16 7490.02ZM1931.68 7481.61C1936.03 7481.67 1939.6 7478.2 1939.66 7473.85C1939.72 7469.5 1936.24 7465.93 1931.89 7465.87C1927.55 7465.81 1923.97 7469.29 1923.91 7473.63C1923.86 7477.98 1927.33 7481.56 1931.68 7481.61ZM1866.25 7537.13C1870.6 7537.19 1874.17 7533.71 1874.23 7529.36C1874.29 7525.02 1870.81 7521.44 1866.46 7521.38C1862.11 7521.33 1858.54 7524.8 1858.48 7529.15C1858.42 7533.5 1861.9 7537.07 1866.25 7537.13ZM1856.62 7524.9C1860.97 7524.96 1864.54 7521.49 1864.6 7517.14C1864.66 7512.79 1861.18 7509.22 1856.83 7509.16C1852.48 7509.1 1848.91 7512.58 1848.85 7516.92C1848.79 7521.27 1852.27 7524.85 1856.62 7524.9ZM1916.84 7477.47C1921.19 7477.53 1924.76 7474.05 1924.82 7469.71C1924.88 7465.36 1921.41 7461.79 1917.06 7461.73C1912.71 7461.67 1909.14 7465.14 1909.08 7469.49C1909.02 7473.84 1912.5 7477.41 1916.84 7477.47ZM1889.39 7531.39C1893.74 7531.45 1897.31 7527.97 1897.37 7523.62C1897.43 7519.28 1893.95 7515.7 1889.61 7515.64C1885.26 7515.59 1881.68 7519.06 1881.63 7523.41C1881.57 7527.76 1885.04 7531.33 1889.39 7531.39ZM1895.33 7481.12C1899.68 7481.18 1903.25 7477.7 1903.31 7473.36C1903.37 7469.01 1899.89 7465.43 1895.54 7465.37C1891.2 7465.32 1887.62 7468.79 1887.56 7473.14C1887.5 7477.49 1890.98 7481.06 1895.33 7481.12ZM1895.8 7511.34C1900.15 7511.4 1903.72 7507.92 1903.78 7503.57C1903.84 7499.22 1900.36 7495.65 1896.01 7495.59C1891.66 7495.53 1888.09 7499.01 1888.03 7503.36C1887.97 7507.71 1891.45 7511.28 1895.8 7511.34ZM1876.53 7511.08C1880.87 7511.14 1884.45 7507.66 1884.51 7503.31C1884.57 7498.96 1881.09 7495.39 1876.74 7495.33C1872.39 7495.27 1868.82 7498.75 1868.76 7503.1C1868.7 7507.45 1872.18 7511.02 1876.53 7511.08ZM1863.39 7555.3L1862.95 7556.71C1883.97 7563.28 1911.81 7558.33 1936.42 7543.81L1935.67 7542.53L1934.92 7541.26C1910.79 7555.5 1883.82 7560.14 1863.83 7553.89L1863.39 7555.3ZM1935.67 7542.53L1934.51 7543.45C1947.39 7559.8 1963.91 7581.66 2005.89 7635.38L2007.06 7634.47L2008.22 7633.56C1966.29 7579.91 1949.69 7557.95 1936.83 7541.62L1935.67 7542.53ZM1935.67 7542.53L1936.54 7543.73C1952.8 7531.85 1973.42 7510.4 1983.06 7479.68L1981.65 7479.23L1980.24 7478.79C1970.84 7508.75 1950.7 7529.72 1934.8 7541.34L1935.67 7542.53ZM1935.67 7542.53L1936.54 7543.73C1944.66 7537.8 1958.27 7526.27 1971.05 7512.41C1983.81 7498.58 1995.89 7482.27 2000.75 7466.78L1999.35 7466.34L1997.94 7465.9C1993.28 7480.75 1981.56 7496.66 1968.88 7510.41C1956.23 7524.12 1942.76 7535.52 1934.8 7541.34L1935.67 7542.53ZM1935.67 7542.53L1936.54 7543.73C1941.58 7540.05 1945.76 7534.79 1949.28 7528.61L1948 7527.88L1946.72 7527.15C1943.33 7533.1 1939.39 7537.99 1934.8 7541.34L1935.67 7542.53ZM1948 7527.88L1949.28 7528.61C1957.51 7514.17 1962.31 7494.26 1965.62 7476.2L1964.17 7475.93L1962.72 7475.66C1959.41 7493.71 1954.67 7513.17 1946.72 7527.15L1948 7527.88ZM1935.67 7542.53L1936.78 7543.52C1937.94 7542.21 1939.06 7540.94 1940.14 7539.69L1939.03 7538.72L1937.91 7537.75C1936.84 7538.99 1935.72 7540.26 1934.57 7541.55L1935.67 7542.53ZM1939.03 7538.72L1940.14 7539.69C1940.31 7539.5 1940.47 7539.31 1940.64 7539.12L1939.52 7538.15L1938.4 7537.19C1938.24 7537.38 1938.08 7537.56 1937.91 7537.75L1939.03 7538.72ZM1939.52 7538.15L1940.64 7539.12C1941.31 7538.34 1941.97 7537.57 1942.61 7536.81L1941.49 7535.86L1940.36 7534.9C1939.72 7535.65 1939.07 7536.42 1938.4 7537.19L1939.52 7538.15ZM1941.49 7535.86L1942.61 7536.81C1944.97 7534.03 1947.15 7531.36 1949.16 7528.79L1948 7527.88L1946.84 7526.97C1944.85 7529.51 1942.7 7532.14 1940.36 7534.9L1941.49 7535.86ZM1948 7527.88L1949.16 7528.79C1958.35 7517.04 1964.07 7507.25 1968.08 7496.99C1972.09 7486.76 1974.37 7476.13 1976.76 7462.77L1975.31 7462.51L1973.85 7462.25C1971.47 7475.58 1969.23 7485.97 1965.33 7495.92C1961.45 7505.84 1955.89 7515.39 1946.84 7526.97L1948 7527.88ZM1847.71 7545.32L1847.1 7546.67C1859.02 7552.03 1876.52 7552.32 1893.23 7550.84C1910.01 7549.35 1926.31 7546.04 1935.98 7543.98L1935.67 7542.53L1935.37 7541.09C1925.71 7543.15 1909.56 7546.42 1892.97 7547.89C1876.29 7549.37 1859.48 7549 1848.32 7543.98L1847.71 7545.32ZM1846.07 7568.95L1844.91 7569.86C1846.27 7571.6 1848.67 7572.62 1851.45 7573.21C1854.28 7573.82 1857.79 7574.03 1861.72 7573.91C1869.59 7573.68 1879.38 7572.12 1889.29 7569.54C1899.2 7566.96 1909.31 7563.33 1917.81 7558.92C1926.27 7554.52 1933.34 7549.25 1936.94 7543.3L1935.67 7542.53L1934.41 7541.77C1931.24 7547.02 1924.76 7551.98 1916.45 7556.29C1908.19 7560.59 1898.3 7564.14 1888.54 7566.68C1878.79 7569.23 1869.23 7570.73 1861.63 7570.96C1857.83 7571.07 1854.58 7570.86 1852.06 7570.33C1849.49 7569.78 1847.94 7568.94 1847.23 7568.03L1846.07 7568.95ZM1935.67 7542.53L1936.54 7543.73C1938.21 7542.51 1939.61 7540.86 1940.78 7538.92L1939.52 7538.15L1938.25 7537.39C1937.23 7539.08 1936.08 7540.41 1934.8 7541.34L1935.67 7542.53ZM1939.52 7538.15L1940.78 7538.92C1943.67 7534.13 1945.34 7527.31 1946.15 7519.81C1946.97 7512.28 1946.94 7503.91 1946.35 7495.91C1945.76 7487.91 1944.61 7480.23 1943.15 7474.07C1942.42 7470.99 1941.6 7468.27 1940.73 7466.06C1939.88 7463.9 1938.92 7462.08 1937.82 7460.96L1936.77 7461.99L1935.71 7463.02C1936.38 7463.71 1937.17 7465.07 1937.99 7467.14C1938.79 7469.18 1939.56 7471.76 1940.27 7474.75C1941.69 7480.73 1942.83 7488.25 1943.41 7496.13C1943.99 7504 1944.01 7512.19 1943.21 7519.5C1942.42 7526.84 1940.82 7533.15 1938.25 7537.39L1939.52 7538.15ZM1935.67 7542.53L1936.54 7543.73C1938.86 7542.04 1940.92 7539.58 1942.74 7536.63L1941.49 7535.86L1940.23 7535.08C1938.53 7537.83 1936.71 7539.95 1934.8 7541.34L1935.67 7542.53ZM1941.49 7535.86L1942.74 7536.63C1948.75 7526.91 1952.67 7511.01 1954.28 7495.55C1955.89 7480.12 1955.24 7464.7 1951.79 7455.94L1950.42 7456.48L1949.05 7457.02C1952.22 7465.09 1952.94 7479.92 1951.35 7495.25C1949.75 7510.55 1945.89 7525.92 1940.23 7535.08L1941.49 7535.86ZM1935.67 7542.53L1937.13 7542.28C1935.87 7535.05 1930.93 7522.02 1925.12 7509.78C1922.21 7503.63 1919.05 7497.63 1915.98 7492.59C1912.93 7487.59 1909.91 7483.43 1907.25 7481.05L1906.27 7482.15L1905.28 7483.25C1907.6 7485.32 1910.44 7489.17 1913.46 7494.13C1916.46 7499.06 1919.57 7504.96 1922.46 7511.04C1928.25 7523.25 1933.04 7535.97 1934.22 7542.79L1935.67 7542.53ZM1935.67 7542.53L1936.54 7543.73C1938.09 7542.59 1939.33 7541.14 1940.31 7539.46L1939.03 7538.72L1937.75 7537.98C1936.95 7539.36 1935.97 7540.48 1934.8 7541.34L1935.67 7542.53ZM1939.03 7538.72L1940.31 7539.46C1942.92 7534.96 1943.71 7528.72 1943.53 7522.05C1943.36 7515.34 1942.21 7507.97 1940.74 7501.07C1939.27 7494.15 1937.48 7487.66 1936 7482.67C1935.27 7480.18 1934.61 7478.06 1934.12 7476.46C1933.61 7474.81 1933.31 7473.8 1933.23 7473.44L1931.79 7473.74L1930.34 7474.04C1930.45 7474.58 1930.82 7475.77 1931.3 7477.33C1931.79 7478.93 1932.44 7481.03 1933.17 7483.51C1934.63 7488.46 1936.4 7494.87 1937.85 7501.68C1939.3 7508.5 1940.42 7515.67 1940.58 7522.12C1940.75 7528.63 1939.95 7534.2 1937.75 7537.98L1939.03 7538.72ZM1866.35 7529.26L1865.42 7530.4C1875.06 7538.24 1886.28 7540.97 1898.18 7542.09C1904.13 7542.65 1910.29 7542.81 1916.53 7542.99C1922.79 7543.17 1929.13 7543.37 1935.53 7544L1935.67 7542.53L1935.82 7541.06C1929.31 7540.42 1922.87 7540.22 1916.62 7540.04C1910.35 7539.86 1904.29 7539.7 1898.46 7539.15C1886.81 7538.05 1876.27 7535.42 1867.29 7528.11L1866.35 7529.26ZM1856.73 7517.03L1855.78 7518.16C1865.16 7526.01 1872.27 7530.92 1883.53 7534.63C1894.71 7538.31 1909.93 7540.8 1935.49 7544L1935.67 7542.53L1935.86 7541.07C1910.26 7537.87 1895.32 7535.4 1884.46 7531.82C1873.69 7528.28 1866.91 7523.63 1857.67 7515.9L1856.73 7517.03ZM1935.67 7542.53L1937.14 7542.7C1941.54 7504.58 1926.81 7482.55 1918.2 7468.82L1916.95 7469.6L1915.7 7470.38C1924.24 7484.03 1938.49 7505.3 1934.21 7542.36L1935.67 7542.53ZM1889.5 7523.52L1888.69 7524.75C1899.89 7532.06 1914.89 7536.95 1928.09 7541.46L1928.57 7540.06L1929.04 7538.66C1915.71 7534.1 1901.12 7529.34 1890.31 7522.28L1889.5 7523.52ZM1928.57 7540.06L1928.09 7541.46C1930.52 7542.29 1932.89 7543.1 1935.17 7543.92L1935.67 7542.53L1936.17 7541.14C1933.86 7540.32 1931.48 7539.49 1929.04 7538.66L1928.57 7540.06ZM1935.67 7542.53L1936.82 7541.6C1932.25 7536.01 1922.72 7525.24 1914.07 7512.6C1905.39 7499.92 1897.8 7485.65 1896.91 7473.14L1895.44 7473.25L1893.96 7473.35C1894.91 7486.7 1902.92 7501.54 1911.63 7514.27C1920.38 7527.05 1930.05 7537.99 1934.53 7543.47L1935.67 7542.53ZM1895.9 7503.46L1894.61 7504.18C1904.6 7522.1 1922.14 7537.42 1935.01 7543.85L1935.67 7542.53L1936.33 7541.21C1923.97 7535.04 1906.88 7520.13 1897.19 7502.75L1895.9 7503.46ZM1935.67 7542.53L1935.98 7541.09C1934.19 7540.71 1931.87 7539.89 1929.16 7538.71L1928.57 7540.06L1927.97 7541.41C1930.77 7542.63 1933.29 7543.53 1935.36 7543.98L1935.67 7542.53ZM1928.57 7540.06L1929.16 7538.71C1921.31 7535.28 1910.62 7528.95 1900.77 7522.05C1890.9 7515.14 1882.06 7507.77 1877.8 7502.3L1876.63 7503.2L1875.47 7504.11C1880.02 7509.96 1889.17 7517.53 1899.08 7524.47C1909.01 7531.43 1919.88 7537.87 1927.97 7541.41L1928.57 7540.06Z" fill="#FBCC70"/>
<path d="M1833.28 7495.79C1834.95 7487.11 1856.37 7493.41 1869 7500.75L1866.44 7505.15C1856.11 7507.71 1831.62 7504.47 1833.28 7495.79Z" fill="#FBCC70" stroke="#FBCC70" stroke-width="2.95275"/>
<path d="M1847.46 7475.65C1853.39 7469.1 1868.42 7485.62 1875.39 7498.45L1870.92 7500.88C1860.76 7497.7 1841.52 7482.2 1847.46 7475.65Z" fill="#FBCC70" stroke="#FBCC70" stroke-width="2.95275"/>
</g>
<g filter="url(#filter14_f_856_1579)">
<circle cx="1839" cy="1348" r="161" fill="url(#paint14_radial_856_1579)" fill-opacity="0.8"/>
</g>
<path d="M2000.5 3350C2043.5 3350 1980.66 3335.5 1980.66 2980.56V2604.41C1980.66 2302.65 2023.5 2003.5 1980.66 2003.5C1937.82 2003.5 1921.27 2056.87 1877 2081.5C1832.73 2106.13 1458.77 2081.64 1372.28 2053.5C1285.8 2025.36 1213.22 1932 1124 1932C1034.78 1932 910.704 2102.92 846.282 2053.5C781.859 2004.08 748 1890 705.024 1890C662.047 1890 705.893 2027.36 650 2081.5C594.107 2135.64 457.417 2115.07 371.782 2081.5C286.147 2047.93 221.917 1931.24 189.785 1932C157.653 1932.76 50.2102 2003.5 50.2102 2003.5L18.7188 2419.31C18.7188 2419.31 -28.2899 2469 -7.21845 2469C-40.2899 2469 6.18674 2544 6.18674 2544C-8.39399 2775.51 -38.7003 3299.44 -7.21845 3304C58.8086 3313.56 98.2816 3331 150.282 3258C202.282 3185 271.782 3286.5 371.782 3286.5C471.782 3286.5 509.986 3560 531.782 3382C553.578 3204 1011.37 3220.37 1034.78 3350C1056 3467.5 1472.5 3231 1608.5 3231C1744.5 3231 1957.5 3350 2000.5 3350Z" fill="#0D0215"/>
<path d="M7.75614 5314.84L-18.1831 5718.86C-18.1834 5772.12 76.3214 5944.59 421.406 5944.59C534.529 5944.59 356.657 6194.73 657.918 6293.91C595.582 6380.06 407.005 6553.91 151.392 6560.13C-104.221 6566.35 -51.1179 7092.27 7.38509 7354.45C65.8881 7616.64 144.127 7470.37 250.898 7482.71C357.668 7495.06 554.102 7285.79 605.916 7323.85C657.729 7361.9 657.968 7460.84 693.42 7463.28C728.872 7465.72 741.888 7428.29 777.424 7428.3C812.96 7428.31 839.523 7459 876.929 7482.71C914.336 7506.42 935.689 7537.32 980.934 7559.96C1026.18 7582.6 1086.7 7556.32 1128.44 7598.82C1170.19 7641.32 966.652 7672.18 876.929 7668.78C787.207 7665.38 707.898 7586.11 657.918 7598.82C607.938 7611.54 594.033 7650.23 545.913 7668.78C497.792 7687.33 376.303 7657.23 294.9 7668.78C213.496 7680.33 165.221 7686.53 91.3895 7722.71C17.5579 7758.89 -62.5134 8630.15 63.3881 8675.9C189.29 8721.65 359.736 8646.08 406.405 8675.9C453.075 8705.72 456.039 8752.86 505.911 8776.95C555.782 8801.04 687.567 8695.16 814 8675.9C940.433 8656.64 1316.88 8572.68 1403.46 8621.97C1490.03 8671.26 1530.44 8694.08 1562.96 8675.9C1595.49 8657.72 1618.97 8598.65 1618.97 8598.65C1618.97 8598.65 1711.52 8758.48 1756.5 8736C1801.48 8713.52 1740.56 8587.69 1786.48 8575.33C1832.39 8562.97 1858.56 8595.1 1905.98 8598.65C1953.4 8602.2 2157.99 8579.35 2273 8482.54C2388.01 8385.73 2068.41 7617.34 2001.99 7598.82C1935.56 7580.31 1859.05 7629.48 1826.48 7579.39C1793.91 7529.3 1820.64 7480.06 1850.48 7428.3C1880.32 7376.54 1950.71 7374.2 2001.99 7323.85C2053.26 7273.49 2194.27 6788.12 2001.99 6560.13C1809.7 6332.14 1228.28 6569.35 1128.44 6525.15C1028.6 6480.95 833.727 6379.87 852.928 6329.14C891.575 6332.13 934.112 6333.73 980.934 6333.73C1710.97 6333.73 1312.45 6140.37 1677.97 6140.37C2043.49 6140.37 1961.51 5718.86 1969.8 5718.86C1969.8 5718.86 2079.02 5225.13 2003.64 5239.66C1928.25 5254.18 1908.86 5312.65 1840.13 5346.05C1771.4 5379.45 1403.39 5369.37 1176.6 5362.08C949.8 5354.79 669.761 5361.94 597.567 5314.84C525.374 5267.74 471.272 5144.28 439.059 5162.9C406.847 5181.52 410.501 5213.37 384.556 5239.66C358.612 5265.94 -18.1825 5266.56 -18.1825 5266.56C-39.255 5266.56 7.75614 5314.84 7.75614 5314.84Z" fill="#0D0215"/>
<path d="M22.2223 0H1953V555.935V903.921C1953 1232.3 1874.66 1287.81 1874.66 1229.98C1874.66 1172.16 1942.18 1133.09 1874.66 1110.18C1851.62 1102.36 640.399 1387.72 1006.96 1245.71C1128.48 1198.63 525.675 1110.64 503.876 1275.32C482.076 1439.99 443.866 1186.97 343.849 1186.97C243.831 1186.97 174.32 1093.06 122.311 1160.6C70.3019 1228.13 30.8223 1212 -35.2161 1203.16C-66.7033 1198.94 -36.3918 714.225 -21.8086 500.043C-21.8086 500.043 -10.8548 427.881 22.2223 427.881C1.14724 427.881 -9.27438 384.683 -9.27438 384.683L22.2223 0Z" fill="#0D0215"/>
<g style="mix-blend-mode:saturation">
<path d="M252.959 6494.48C288.774 6499.92 293.742 6408.56 282.69 6349.77L262.209 6353.61C238.163 6390.01 217.144 6489.03 252.959 6494.48Z" fill="#FBCC70" stroke="#FBCC70" stroke-width="13.697"/>
<path d="M156.401 6449.24C129.379 6425.11 196.618 6363.06 248.969 6334.11L259.059 6352.34C246.335 6394.06 183.423 6473.37 156.401 6449.24Z" fill="#FBCC70" stroke="#FBCC70" stroke-width="13.697"/>
<path d="M428.356 6303.63C419.049 6294.36 439.906 6276.52 451.498 6268.75C458.566 6274.05 471.112 6286.38 464.753 6293.31C456.805 6301.98 439.99 6315.22 428.356 6303.63Z" fill="#FBCC70" stroke="#FBCC70" stroke-width="13.697"/>
<path d="M491.059 6316.28C504.033 6318.32 506.126 6290.95 505.551 6277.01C497.104 6274.43 479.749 6271.58 477.906 6280.81C475.602 6292.34 474.841 6313.73 491.059 6316.28Z" fill="#FBCC70" stroke="#FBCC70" stroke-width="13.697"/>
<path d="M379.003 6042.06C407.576 6043.6 433.597 6049.19 455.303 6060.38C448.428 6058.52 441.722 6056.75 435.173 6055.07C434.18 6054.81 433.191 6054.56 432.205 6054.31C428.136 6053.28 424.127 6052.28 420.177 6051.31C405.71 6047.78 392.028 6044.7 379.003 6042.06Z" fill="#FBCC70"/>
<path d="M171.959 5992.02C163.181 5973.86 141.342 5966.25 123.18 5975.03C105.017 5983.81 97.4099 6005.65 106.188 6023.81C114.966 6041.97 136.806 6049.58 154.968 6040.8C173.13 6032.02 180.738 6010.18 171.959 5992.02ZM92.2718 5950.81C83.4936 5932.64 61.6541 5925.04 43.4918 5933.81C25.3295 5942.59 17.7222 5964.43 26.5004 5982.59C35.2786 6000.76 57.1181 6008.36 75.2803 5999.59C93.4426 5990.81 101.05 5968.97 92.2718 5950.81ZM191.892 6062.11C183.114 6043.95 161.274 6036.34 143.112 6045.12C124.95 6053.9 117.342 6075.74 126.12 6093.9C134.899 6112.07 156.738 6119.67 174.9 6110.89C193.063 6102.12 200.67 6080.28 191.892 6062.11ZM122.303 6045.92C113.525 6027.76 91.6853 6020.15 73.5231 6028.93C55.3608 6037.7 47.7535 6059.54 56.5316 6077.71C65.3098 6095.87 87.1493 6103.48 105.312 6094.7C123.474 6085.92 131.081 6064.08 122.303 6045.92ZM191.025 6188.11C182.247 6169.94 160.407 6162.34 142.245 6171.11C124.083 6179.89 116.476 6201.73 125.254 6219.89C134.032 6238.06 155.872 6245.66 174.034 6236.89C192.196 6228.11 199.803 6206.27 191.025 6188.11ZM145.821 6148.16C137.043 6130 115.203 6122.39 97.0412 6131.17C78.8789 6139.95 71.2716 6161.79 80.0497 6179.95C88.8279 6198.11 110.667 6205.72 128.83 6196.94C146.992 6188.17 154.599 6166.33 145.821 6148.16ZM320.815 6262.91C312.037 6244.75 290.197 6237.14 272.035 6245.92C253.873 6254.69 246.266 6276.53 255.044 6294.7C263.822 6312.86 285.661 6320.47 303.824 6311.69C321.986 6302.91 329.593 6281.07 320.815 6262.91ZM243.221 6184.8C234.443 6166.64 212.603 6159.03 194.441 6167.81C176.279 6176.59 168.671 6198.43 177.449 6216.59C186.228 6234.75 208.067 6242.36 226.229 6233.58C244.392 6224.81 251.999 6202.97 243.221 6184.8ZM517.196 6246.76C508.418 6228.6 486.579 6220.99 468.416 6229.77C450.254 6238.55 442.647 6260.39 451.425 6278.55C460.203 6296.71 482.043 6304.32 500.205 6295.54C518.367 6286.76 525.975 6264.92 517.196 6246.76ZM255.237 6246.77C246.459 6228.6 224.62 6221 206.458 6229.77C188.295 6238.55 180.688 6260.39 189.466 6278.55C198.244 6296.72 220.084 6304.32 238.246 6295.55C256.408 6286.77 264.016 6264.93 255.237 6246.77ZM308.038 6318.91C299.26 6300.75 277.421 6293.14 259.258 6301.92C241.096 6310.7 233.489 6332.54 242.267 6350.7C251.045 6368.86 272.885 6376.47 291.047 6367.69C309.209 6358.92 316.817 6337.08 308.038 6318.91ZM455.303 6060.38L461.551 6063.18C536.322 5896.5 606.816 5759.87 726.755 5507.47L720.57 5504.53L714.384 5501.59C594.676 5753.5 523.885 5890.76 449.054 6057.57L455.303 6060.38ZM455.303 6060.38L458.44 6054.29C385.021 6016.45 268.465 5980.14 137.985 6001.15L139.074 6007.91L140.163 6014.68C266.979 5994.25 380.55 6029.56 452.166 6066.46L455.303 6060.38ZM455.303 6060.38L458.44 6054.29C421.794 6035.4 354.564 6006.64 280.295 5985.17C206.205 5963.76 124.158 5949.33 58.2971 5959.94L59.3861 5966.7L60.475 5973.46C123.263 5963.35 202.915 5977.07 276.492 5998.33C349.89 6019.54 416.294 6047.98 452.166 6066.46L455.303 6060.38ZM455.303 6060.38L458.44 6054.29C435.606 6042.52 408.553 6036.8 379.371 6035.23L379.003 6042.06L378.635 6048.9C406.599 6050.41 431.589 6055.86 452.166 6066.46L455.303 6060.38ZM379.003 6042.06L379.371 6035.23C311.23 6031.56 229.384 6050.47 157.099 6071.43L159.006 6078.01L160.913 6084.59C233.102 6063.65 313.001 6045.37 378.635 6048.9L379.003 6042.06ZM455.303 6060.38L457.091 6053.76C450.189 6051.9 443.454 6050.12 436.874 6048.44L435.173 6055.07L433.472 6061.7C439.99 6063.37 446.668 6065.13 453.515 6066.99L455.303 6060.38ZM435.173 6055.07L436.874 6048.44C435.877 6048.18 434.883 6047.93 433.892 6047.67L432.205 6054.31L430.519 6060.95C431.499 6061.2 432.484 6061.45 433.472 6061.7L435.173 6055.07ZM432.205 6054.31L433.892 6047.67C429.803 6046.63 425.774 6045.63 421.803 6044.66L420.177 6051.31L418.552 6057.97C422.48 6058.93 426.469 6059.92 430.519 6060.95L432.205 6054.31ZM420.177 6051.31L421.803 6044.66C407.259 6041.11 393.487 6038.01 380.362 6035.35L379.003 6042.06L377.644 6048.78C390.568 6051.39 404.161 6054.45 418.552 6057.97L420.177 6051.31ZM379.003 6042.06L380.362 6035.35C320.409 6023.21 273.969 6020.2 228.952 6024.28C184.028 6028.36 140.818 6039.49 87.4773 6055.24L89.4173 6061.81L91.3574 6068.38C144.566 6052.66 186.69 6041.87 230.191 6037.92C273.6 6033.98 318.678 6036.83 377.644 6048.78L379.003 6042.06ZM455.303 6060.38L458.44 6054.29C450.813 6050.36 442.099 6048.23 432.75 6047.48L432.205 6054.31L431.661 6061.14C439.667 6061.78 446.521 6063.55 452.166 6066.46L455.303 6060.38ZM432.205 6054.31L432.75 6047.48C409.727 6045.65 381.564 6052.1 352.569 6062.87C323.418 6073.7 292.752 6089.16 264.474 6106C236.194 6122.85 210.131 6141.18 190.205 6157.86C180.248 6166.2 171.726 6174.2 165.203 6181.46C158.816 6188.57 153.839 6195.52 151.672 6201.75L158.14 6204L164.607 6206.25C165.85 6202.68 169.303 6197.39 175.393 6190.61C181.347 6183.98 189.352 6176.44 198.996 6168.36C218.275 6152.23 243.722 6134.3 271.484 6117.77C299.247 6101.23 329.156 6086.18 357.339 6075.71C385.677 6065.18 411.606 6059.54 431.661 6061.14L432.205 6054.31ZM455.303 6060.38L458.44 6054.29C447.886 6048.85 435.014 6045.78 420.794 6044.49L420.177 6051.31L419.561 6058.13C432.697 6059.32 443.689 6062.09 452.166 6066.46L455.303 6060.38ZM420.177 6051.31L420.794 6044.49C373.97 6040.26 308.38 6055.1 248.753 6077.54C189.229 6099.95 133.752 6130.65 107.842 6159.48L112.935 6164.06L118.029 6168.64C141.643 6142.36 194.504 6112.6 253.578 6090.36C312.55 6068.16 375.819 6054.18 419.561 6058.13L420.177 6051.31ZM455.303 6060.38L451.237 6054.86C426.943 6072.79 388.208 6114.83 353.977 6158.58C336.785 6180.55 320.57 6203.15 307.72 6223.65C294.971 6243.98 285.186 6262.78 281.321 6277.01L287.929 6278.8L294.538 6280.6C297.842 6268.44 306.689 6251.07 319.324 6230.92C331.858 6210.93 347.779 6188.73 364.764 6167.02C398.885 6123.42 436.668 6082.64 459.369 6065.89L455.303 6060.38ZM455.303 6060.38L458.44 6054.29C451.349 6050.63 443.646 6048.73 435.598 6048.23L435.173 6055.07L434.749 6061.9C441.177 6062.3 446.987 6063.79 452.166 6066.46L455.303 6060.38ZM435.173 6055.07L435.598 6048.23C414.09 6046.9 389.606 6055.54 365.45 6068.41C341.108 6081.38 316.196 6099.14 293.567 6117.19C270.908 6135.26 250.375 6153.76 234.791 6168.29C226.998 6175.56 220.428 6181.85 215.464 6186.59C210.322 6191.5 207.247 6194.41 206.088 6195.33L210.335 6200.7L214.582 6206.07C216.392 6204.64 220.122 6201.08 224.923 6196.5C229.901 6191.75 236.41 6185.51 244.133 6178.31C259.583 6163.9 279.831 6145.66 302.107 6127.89C324.413 6110.1 348.588 6092.91 371.891 6080.5C395.379 6067.98 417.096 6060.81 434.749 6061.9L435.173 6055.07ZM484.311 6262.66L490.975 6264.24C502.633 6215.05 502.731 6178.67 495.991 6146.65C489.296 6114.84 475.897 6087.7 461.486 6057.43L455.303 6060.38L449.12 6063.32C463.716 6093.98 476.294 6119.57 482.588 6149.47C488.836 6179.16 488.933 6213.46 477.647 6261.08L484.311 6262.66ZM455.303 6060.38L452.962 6053.94C304.903 6107.78 251.085 6202.36 216.504 6259.1L222.352 6262.66L228.2 6266.22C262.512 6209.93 314.255 6118.96 457.644 6066.81L455.303 6060.38ZM455.303 6060.38L449.054 6057.57C436.934 6084.59 414.947 6139.19 384.517 6194.01C353.971 6249.04 315.666 6302.85 271.662 6328.92L275.153 6334.81L278.643 6340.7C326.021 6312.63 365.803 6255.95 396.493 6200.66C427.299 6145.16 449.696 6089.61 461.551 6063.18L455.303 6060.38Z" fill="#FBCC70"/>
</g>
<g style="mix-blend-mode:saturation">
<path d="M1834 3567.25C1819.84 3551.89 1804.59 3539.85 1788.19 3532.84C1792.44 3535.84 1796.55 3538.79 1800.55 3541.7C1801.15 3542.14 1801.75 3542.58 1802.35 3543.01C1804.83 3544.82 1807.26 3546.61 1809.64 3548.39C1818.36 3554.88 1826.45 3561.15 1834 3567.25Z" fill="#FBCC70"/>
<path d="M1960.24 3667.59C1970.6 3665.04 1981.06 3671.38 1983.61 3681.74C1986.15 3692.1 1979.81 3702.56 1969.45 3705.11C1959.09 3707.65 1948.63 3701.31 1946.09 3690.95C1943.54 3680.59 1949.88 3670.13 1960.24 3667.59ZM2020.5 3693.24C2030.87 3690.7 2041.33 3697.04 2043.87 3707.4C2046.42 3717.76 2040.08 3728.22 2029.72 3730.76C2019.36 3733.31 2008.89 3726.97 2006.35 3716.61C2003.81 3706.25 2010.14 3695.79 2020.5 3693.24ZM1911.53 3688.99C1921.89 3686.44 1932.35 3692.78 1934.9 3703.14C1937.44 3713.5 1931.1 3723.96 1920.74 3726.51C1910.38 3729.05 1899.92 3722.71 1897.37 3712.35C1894.83 3701.99 1901.17 3691.53 1911.53 3688.99ZM1953.02 3720.6C1963.38 3718.06 1973.84 3724.39 1976.39 3734.76C1978.93 3745.12 1972.59 3755.58 1962.23 3758.12C1951.87 3760.67 1941.41 3754.33 1938.87 3743.97C1936.32 3733.61 1942.66 3723.15 1953.02 3720.6ZM1841.05 3748.1C1851.41 3745.55 1861.87 3751.89 1864.41 3762.25C1866.96 3772.61 1860.62 3783.07 1850.26 3785.62C1839.9 3788.16 1829.44 3781.82 1826.89 3771.46C1824.35 3761.1 1830.69 3750.64 1841.05 3748.1ZM1884.55 3754.94C1894.91 3752.4 1905.37 3758.74 1907.92 3769.1C1910.46 3779.46 1904.13 3789.92 1893.76 3792.46C1883.4 3795.01 1872.94 3788.67 1870.4 3778.31C1867.85 3767.95 1874.19 3757.49 1884.55 3754.94ZM1738.57 3709.88C1748.93 3707.33 1759.4 3713.67 1761.94 3724.03C1764.48 3734.39 1758.15 3744.85 1747.79 3747.4C1737.42 3749.94 1726.96 3743.61 1724.42 3733.24C1721.87 3722.88 1728.21 3712.42 1738.57 3709.88ZM1818.62 3717.19C1828.98 3714.65 1839.44 3720.99 1841.99 3731.35C1844.53 3741.71 1838.19 3752.17 1827.83 3754.71C1817.47 3757.26 1807.01 3750.92 1804.46 3740.56C1801.92 3730.2 1808.26 3719.74 1818.62 3717.19ZM1565.87 3671.37C1576.23 3668.83 1586.7 3675.16 1589.24 3685.53C1591.78 3695.89 1585.45 3706.35 1575.09 3708.89C1564.73 3711.44 1554.26 3705.1 1551.72 3694.74C1549.18 3684.38 1555.51 3673.92 1565.87 3671.37ZM1778.17 3739.26C1788.53 3736.72 1798.99 3743.05 1801.53 3753.42C1804.08 3763.78 1797.74 3774.24 1787.38 3776.78C1777.02 3779.33 1766.56 3772.99 1764.01 3762.63C1761.47 3752.27 1767.81 3741.81 1778.17 3739.26ZM1713.01 3743.12C1723.37 3740.58 1733.83 3746.92 1736.38 3757.28C1738.92 3767.64 1732.58 3778.1 1722.22 3780.65C1711.86 3783.19 1701.4 3776.85 1698.85 3766.49C1696.31 3756.13 1702.65 3745.67 1713.01 3743.12ZM1788.19 3532.84L1784.95 3531.24C1843.94 3411.61 1888.04 3308.31 1974.21 3123.44L1977.5 3124.97L1980.78 3126.5C1894.73 3311.11 1850.47 3414.74 1791.44 3534.44L1788.19 3532.84ZM1788.19 3532.84L1789.62 3529.51C1844.88 3553.13 1919.27 3601.65 1967.97 3684.51L1964.85 3686.35L1961.72 3688.18C1914.02 3607.01 1841.04 3559.37 1786.77 3536.17L1788.19 3532.84ZM1788.19 3532.84L1789.62 3529.51C1817.21 3541.31 1864.6 3565.7 1911.16 3597.45C1957.63 3629.14 2003.72 3668.45 2028.23 3710.17L2025.11 3712L2021.99 3713.84C1998.31 3673.54 1953.32 3634.97 1907.07 3603.44C1860.91 3571.96 1813.94 3547.79 1786.77 3536.17L1788.19 3532.84ZM1788.19 3532.84L1789.62 3529.51C1806.63 3536.78 1822.28 3549.2 1836.66 3564.79L1834 3567.25L1831.33 3569.7C1817.39 3554.58 1802.55 3542.91 1786.77 3536.17L1788.19 3532.84ZM1834 3567.25L1836.66 3564.79C1870.26 3601.24 1897.62 3655.89 1919.46 3706.31L1916.14 3707.75L1912.81 3709.19C1891 3658.82 1864.03 3605.17 1831.33 3569.7L1834 3567.25ZM1788.19 3532.84L1790.29 3529.88C1794.54 3532.89 1798.67 3535.85 1802.68 3538.77L1800.55 3541.7L1798.41 3544.63C1794.44 3541.73 1790.33 3538.79 1786.1 3535.8L1788.19 3532.84ZM1800.55 3541.7L1802.68 3538.77C1803.28 3539.21 1803.89 3539.65 1804.49 3540.09L1802.35 3543.01L1800.22 3545.94C1799.62 3545.5 1799.02 3545.06 1798.41 3544.63L1800.55 3541.7ZM1802.35 3543.01L1804.49 3540.09C1806.97 3541.9 1809.41 3543.7 1811.8 3545.48L1809.64 3548.39L1807.47 3551.29C1805.1 3549.52 1802.68 3547.74 1800.22 3545.94L1802.35 3543.01ZM1809.64 3548.39L1811.8 3545.48C1820.55 3552 1828.69 3558.3 1836.28 3564.43L1834 3567.25L1831.72 3570.06C1824.22 3564 1816.16 3557.76 1807.47 3551.29L1809.64 3548.39ZM1834 3567.25L1836.28 3564.43C1870.92 3592.45 1894.13 3617.08 1912.68 3644.17C1931.21 3671.23 1945.01 3700.61 1960.96 3737.94L1957.63 3739.36L1954.3 3740.79C1938.38 3703.52 1924.8 3674.7 1906.7 3648.27C1888.63 3621.88 1865.95 3597.75 1831.72 3570.06L1834 3567.25ZM1788.19 3532.84L1789.62 3529.51C1795.17 3531.88 1800.28 3535.67 1804.95 3540.49L1802.35 3543.01L1799.75 3545.54C1795.57 3541.23 1791.24 3538.08 1786.77 3536.17L1788.19 3532.84ZM1802.35 3543.01L1804.95 3540.49C1816.49 3552.37 1825.88 3571 1833.29 3592.25C1840.73 3613.6 1846.28 3637.96 1849.95 3661.64C1853.62 3685.33 1855.43 3708.45 1855.31 3727.34C1855.26 3736.78 1854.72 3745.23 1853.69 3752.19C1852.66 3759.05 1851.1 3764.86 1848.75 3768.73L1845.65 3766.86L1842.56 3764.98C1844.13 3762.38 1845.53 3757.75 1846.52 3751.12C1847.49 3744.6 1848.02 3736.52 1848.07 3727.3C1848.18 3708.86 1846.42 3686.13 1842.79 3662.75C1839.17 3639.38 1833.7 3615.46 1826.45 3594.64C1819.16 3573.73 1810.19 3556.29 1799.75 3545.54L1802.35 3543.01ZM1788.19 3532.84L1789.62 3529.51C1797.37 3532.82 1804.95 3538.51 1812.21 3545.84L1809.64 3548.39L1807.06 3550.94C1800.21 3544.02 1793.39 3539 1786.77 3536.17L1788.19 3532.84ZM1809.64 3548.39L1812.21 3545.84C1836.16 3569.99 1858.24 3613.56 1873.34 3657.48C1888.41 3701.35 1896.86 3746.59 1892.74 3774.24L1889.16 3773.7L1885.58 3773.17C1889.42 3747.32 1881.48 3703.47 1866.49 3659.84C1851.51 3616.27 1829.86 3573.93 1807.06 3550.94L1809.64 3548.39ZM1788.19 3532.84L1791.81 3532.64C1793.02 3554.45 1787.42 3595.65 1778.74 3635.25C1774.39 3655.11 1769.23 3674.7 1763.69 3691.41C1758.19 3708.02 1752.22 3722.11 1746.14 3730.73L1743.18 3728.64L1740.22 3726.55C1745.65 3718.86 1751.35 3705.64 1756.82 3689.13C1762.25 3672.72 1767.35 3653.38 1771.67 3633.69C1780.33 3594.19 1785.73 3553.8 1784.58 3533.04L1788.19 3532.84ZM1788.19 3532.84L1789.62 3529.51C1794.77 3531.71 1799.27 3535.04 1803.19 3539.22L1800.55 3541.7L1797.9 3544.17C1794.58 3540.62 1790.88 3537.93 1786.77 3536.17L1788.19 3532.84ZM1800.55 3541.7L1803.19 3539.22C1813.68 3550.42 1820.15 3567.9 1824.13 3587.41C1828.14 3607.02 1829.73 3629.2 1830.11 3650.29C1830.48 3671.4 1829.63 3691.52 1828.7 3707.03C1828.24 3714.79 1827.76 3721.41 1827.4 3726.41C1827.03 3731.54 1826.82 3734.71 1826.85 3735.87L1823.23 3735.95L1819.6 3736.03C1819.57 3734.43 1819.83 3730.77 1820.18 3725.89C1820.53 3720.88 1821.01 3714.31 1821.47 3706.6C1822.39 3691.19 1823.23 3671.27 1822.86 3650.42C1822.49 3629.55 1820.91 3607.86 1817.03 3588.86C1813.13 3569.74 1807 3553.88 1797.9 3544.17L1800.55 3541.7ZM1570.48 3690.13L1567.59 3687.95C1589.4 3659.08 1607.9 3632.65 1639.15 3606.88C1670.42 3581.09 1714.31 3556.08 1786.95 3529.44L1788.19 3532.84L1789.44 3536.24C1717.27 3562.71 1674.19 3587.37 1643.76 3612.47C1613.3 3637.58 1595.34 3663.23 1573.37 3692.32L1570.48 3690.13ZM1788.19 3532.84L1791.61 3531.62C1830.03 3639.51 1802.01 3713.4 1786.2 3759.2L1782.77 3758.02L1779.35 3756.84C1795.07 3711.29 1822.33 3639.46 1784.78 3534.06L1788.19 3532.84ZM1788.19 3532.84L1791.44 3534.44C1781.91 3553.77 1761.37 3591.64 1744.66 3634.34C1727.9 3677.16 1715.32 3724.05 1721.19 3761.32L1717.61 3761.88L1714.04 3762.45C1707.84 3723.12 1721.1 3674.67 1737.92 3631.7C1754.78 3588.62 1775.56 3550.26 1784.95 3531.24L1788.19 3532.84Z" fill="#FBCC70"/>
<path d="M1638.11 3848.66C1618.38 3831.05 1667.47 3785.74 1705.69 3764.6L1713.06 3777.92C1703.77 3808.38 1657.84 3866.28 1638.11 3848.66Z" fill="#FBCC70" stroke="#FBCC70" stroke-width="0.332315"/>
<path d="M1708.48 3881.94C1734.63 3885.92 1738.26 3819.21 1730.19 3776.29L1715.24 3779.1C1697.68 3805.67 1682.34 3877.96 1708.48 3881.94Z" fill="#FBCC70" stroke="#FBCC70" stroke-width="0.332315"/>
<path d="M1570.42 3739.41C1579.97 3740.34 1580.3 3720.3 1579.28 3710.16C1573.01 3708.65 1560.24 3707.33 1559.3 3714.13C1558.12 3722.64 1558.49 3738.26 1570.42 3739.41Z" fill="#FBCC70" stroke="#FBCC70" stroke-width="0.332315"/>
<path d="M1529.36 3712.35C1522.17 3706 1536.59 3692.09 1544.71 3685.93C1550.09 3689.48 1559.77 3697.92 1555.43 3703.25C1550.02 3709.91 1538.34 3720.29 1529.36 3712.35Z" fill="#FBCC70" stroke="#FBCC70" stroke-width="0.332315"/>
<path d="M1667.09 3713.95C1693.24 3717.92 1696.86 3651.22 1688.79 3608.3L1673.84 3611.1C1656.29 3637.68 1640.94 3709.97 1667.09 3713.95Z" fill="#FBCC70" stroke="#FBCC70" stroke-width="0.332315"/>
<path d="M1596.59 3680.92C1576.86 3663.3 1625.95 3618 1664.18 3596.86L1671.54 3610.17C1662.25 3640.64 1616.32 3698.54 1596.59 3680.92Z" fill="#FBCC70" stroke="#FBCC70" stroke-width="0.332315"/>
<path d="M1794.41 3696.48C1787.62 3689.71 1802.84 3676.68 1811.31 3671.02C1816.47 3674.88 1825.63 3683.88 1820.98 3688.94C1815.18 3695.27 1802.9 3704.94 1794.41 3696.48Z" fill="#FBCC70" stroke="#FBCC70" stroke-width="0.332315"/>
<path d="M1841.44 3710.88C1850.91 3712.37 1852.44 3692.39 1852.02 3682.21C1845.85 3680.33 1833.18 3678.25 1831.84 3684.98C1830.15 3693.4 1829.6 3709.02 1841.44 3710.88Z" fill="#FBCC70" stroke="#FBCC70" stroke-width="0.332315"/>
<path d="M1759.11 3383.64C1779.97 3384.77 1798.97 3388.85 1814.82 3397.01C1809.8 3395.66 1804.9 3394.37 1800.12 3393.14C1799.4 3392.95 1798.67 3392.77 1797.96 3392.59C1794.98 3391.83 1792.06 3391.1 1789.17 3390.4C1778.61 3387.82 1768.62 3385.57 1759.11 3383.64Z" fill="#FBCC70"/>
<path d="M1601.34 3350.31C1596.69 3340.7 1585.14 3336.68 1575.54 3341.32C1565.93 3345.96 1561.91 3357.51 1566.55 3367.12C1571.19 3376.72 1582.74 3380.75 1592.35 3376.11C1601.96 3371.46 1605.98 3359.91 1601.34 3350.31ZM1543.16 3320.22C1538.51 3310.61 1526.96 3306.59 1517.36 3311.23C1507.75 3315.87 1503.73 3327.42 1508.37 3337.03C1513.01 3346.63 1524.56 3350.66 1534.17 3346.02C1543.78 3341.37 1547.8 3329.82 1543.16 3320.22ZM1615.89 3401.48C1611.25 3391.88 1599.7 3387.85 1590.09 3392.49C1580.48 3397.14 1576.46 3408.69 1581.1 3418.29C1585.75 3427.9 1597.3 3431.92 1606.9 3427.28C1616.51 3422.64 1620.53 3411.09 1615.89 3401.48ZM1565.08 3389.66C1560.44 3380.05 1548.89 3376.03 1539.28 3380.67C1529.68 3385.31 1525.65 3396.86 1530.3 3406.47C1534.94 3416.07 1546.49 3420.1 1556.1 3415.46C1565.7 3410.81 1569.73 3399.26 1565.08 3389.66ZM1615.26 3493.47C1610.61 3483.86 1599.06 3479.84 1589.46 3484.48C1579.85 3489.12 1575.83 3500.67 1580.47 3510.28C1585.11 3519.88 1596.66 3523.91 1606.27 3519.27C1615.88 3514.62 1619.9 3503.07 1615.26 3493.47ZM1582.25 3464.3C1577.61 3454.7 1566.06 3450.68 1556.45 3455.32C1546.85 3459.96 1542.82 3471.51 1547.47 3481.12C1552.11 3490.72 1563.66 3494.75 1573.27 3490.1C1582.87 3485.46 1586.9 3473.91 1582.25 3464.3ZM1710.01 3548.08C1705.37 3538.47 1693.82 3534.45 1684.21 3539.09C1674.61 3543.73 1670.59 3555.28 1675.23 3564.89C1679.87 3574.5 1691.42 3578.52 1701.03 3573.88C1710.63 3569.23 1714.66 3557.68 1710.01 3548.08ZM1653.36 3491.06C1648.72 3481.45 1637.17 3477.43 1627.56 3482.07C1617.96 3486.71 1613.93 3498.26 1618.58 3507.87C1623.22 3517.47 1634.77 3521.5 1644.38 3516.85C1653.98 3512.21 1658.01 3500.66 1653.36 3491.06ZM1849.75 3656.62C1845.11 3647.02 1833.55 3642.99 1823.95 3647.64C1814.34 3652.28 1810.32 3663.83 1814.96 3673.44C1819.6 3683.04 1831.16 3687.07 1840.76 3682.42C1850.37 3677.78 1854.39 3666.23 1849.75 3656.62ZM1662.14 3536.29C1657.49 3526.69 1645.94 3522.66 1636.34 3527.31C1626.73 3531.95 1622.71 3543.5 1627.35 3553.11C1631.99 3562.71 1643.54 3566.73 1653.15 3562.09C1662.76 3557.45 1666.78 3545.9 1662.14 3536.29ZM1700.69 3588.97C1696.04 3579.36 1684.49 3575.34 1674.89 3579.98C1665.28 3584.62 1661.26 3596.17 1665.9 3605.78C1670.54 3615.39 1682.09 3619.41 1691.7 3614.77C1701.31 3610.12 1705.33 3598.57 1700.69 3588.97ZM1814.82 3397.01L1818.12 3398.5C1872.72 3276.8 1924.22 3176.98 2011.76 2992.75L2008.49 2991.2L2005.21 2989.64C1917.79 3173.61 1866.14 3273.76 1811.51 3395.53L1814.82 3397.01ZM1814.82 3397.01L1816.48 3393.79C1763.06 3366.26 1678.26 3339.85 1583.37 3355.14L1583.94 3358.71L1584.52 3362.29C1677.47 3347.32 1760.69 3373.19 1813.16 3400.23L1814.82 3397.01ZM1814.82 3397.01L1816.48 3393.79C1789.8 3380.05 1740.8 3359.08 1686.66 3343.43C1632.62 3327.82 1572.96 3317.35 1525.19 3325.05L1525.76 3328.62L1526.34 3332.2C1572.49 3324.77 1630.88 3334.85 1684.65 3350.39C1738.33 3365.91 1786.89 3386.7 1813.16 3400.23L1814.82 3397.01ZM1814.82 3397.01L1816.48 3393.79C1800.03 3385.32 1780.49 3381.17 1759.31 3380.03L1759.11 3383.64L1758.92 3387.26C1779.46 3388.37 1797.91 3392.37 1813.16 3400.23L1814.82 3397.01ZM1759.11 3383.64L1759.31 3380.03C1709.81 3377.36 1650.25 3391.11 1597.49 3406.41L1598.5 3409.89L1599.5 3413.37C1652.22 3398.08 1710.75 3384.67 1758.92 3387.26L1759.11 3383.64ZM1814.82 3397.01L1815.76 3393.52C1810.73 3392.16 1805.82 3390.86 1801.02 3389.63L1800.12 3393.14L1799.22 3396.65C1803.99 3397.87 1808.87 3399.16 1813.87 3400.51L1814.82 3397.01ZM1800.12 3393.14L1801.02 3389.63C1800.29 3389.44 1799.57 3389.26 1798.85 3389.08L1797.96 3392.59L1797.06 3396.1C1797.78 3396.28 1798.5 3396.46 1799.22 3396.65L1800.12 3393.14ZM1797.96 3392.59L1798.85 3389.08C1795.87 3388.32 1792.93 3387.59 1790.03 3386.88L1789.17 3390.4L1788.31 3393.92C1791.19 3394.62 1794.1 3395.34 1797.06 3396.1L1797.96 3392.59ZM1789.17 3390.4L1790.03 3386.88C1779.43 3384.29 1769.39 3382.03 1759.83 3380.09L1759.11 3383.64L1758.39 3387.19C1767.85 3389.11 1777.79 3391.34 1788.31 3393.92L1789.17 3390.4ZM1759.11 3383.64L1759.83 3380.09C1716.16 3371.25 1682.39 3369.07 1649.69 3372.04C1617.03 3375 1585.59 3383.09 1546.66 3394.59L1547.69 3398.06L1548.72 3401.54C1587.58 3390.06 1618.44 3382.15 1650.34 3379.25C1682.2 3376.36 1715.24 3378.46 1758.39 3387.19L1759.11 3383.64ZM1814.82 3397.01L1816.48 3393.79C1811.11 3391.03 1804.93 3389.51 1798.24 3388.98L1797.96 3392.59L1797.67 3396.2C1803.65 3396.67 1808.84 3398.01 1813.16 3400.23L1814.82 3397.01ZM1797.96 3392.59L1798.24 3388.98C1781.73 3387.66 1761.4 3392.29 1740.29 3400.13C1719.11 3408 1696.8 3419.24 1676.2 3431.51C1655.61 3443.78 1636.64 3457.12 1622.16 3469.24C1614.92 3475.3 1608.75 3481.1 1604.04 3486.34C1599.41 3491.5 1595.93 3496.4 1594.44 3500.68L1597.86 3501.87L1601.28 3503.06C1602.28 3500.19 1604.96 3496.16 1609.43 3491.18C1613.84 3486.27 1619.73 3480.72 1626.81 3474.8C1640.95 3462.96 1659.59 3449.84 1679.91 3437.73C1700.23 3425.63 1722.14 3414.6 1742.82 3406.92C1763.57 3399.21 1782.73 3395.01 1797.67 3396.2L1797.96 3392.59ZM1814.82 3397.01L1816.48 3393.79C1808.98 3389.93 1799.77 3387.72 1789.5 3386.79L1789.17 3390.4L1788.85 3394C1798.55 3394.88 1806.76 3396.94 1813.16 3400.23L1814.82 3397.01ZM1789.17 3390.4L1789.5 3386.79C1755.62 3383.73 1707.97 3394.48 1664.5 3410.84C1621.09 3427.18 1580.85 3449.5 1562.17 3470.29L1564.86 3472.71L1567.55 3475.13C1585.03 3455.69 1623.88 3433.87 1667.06 3417.62C1710.18 3401.39 1756.6 3391.09 1788.85 3394L1789.17 3390.4ZM1814.82 3397.01L1812.67 3394.1C1795.09 3407.07 1766.91 3437.64 1741.93 3469.56C1729.4 3485.57 1717.59 3502.04 1708.24 3516.95C1698.94 3531.77 1691.89 3545.36 1689.13 3555.53L1692.62 3556.48L1696.12 3557.43C1698.58 3548.35 1705.14 3535.53 1714.37 3520.8C1723.56 3506.15 1735.21 3489.9 1747.63 3474.03C1772.55 3442.18 1800.23 3412.27 1816.97 3399.93L1814.82 3397.01ZM1814.82 3397.01L1816.48 3393.79C1811.49 3391.23 1806.06 3389.88 1800.35 3389.52L1800.12 3393.14L1799.9 3396.75C1804.75 3397.06 1809.19 3398.19 1813.16 3400.23L1814.82 3397.01ZM1800.12 3393.14L1800.35 3389.52C1785.03 3388.57 1767.43 3394.73 1749.87 3404.09C1732.2 3413.51 1714.08 3426.42 1697.6 3439.57C1681.09 3452.73 1666.13 3466.21 1654.76 3476.81C1649.08 3482.11 1644.29 3486.7 1640.67 3490.16C1636.95 3493.71 1634.64 3495.9 1633.72 3496.62L1635.97 3499.46L1638.22 3502.3C1639.47 3501.31 1642.13 3498.78 1645.67 3495.4C1649.3 3491.93 1654.06 3487.37 1659.71 3482.11C1671 3471.57 1685.81 3458.23 1702.11 3445.23C1718.43 3432.22 1736.15 3419.61 1753.27 3410.49C1770.49 3401.32 1786.62 3395.93 1799.9 3396.75L1800.12 3393.14ZM1832.36 3665.03L1835.88 3665.87C1844.22 3630.66 1852.81 3599.56 1852.75 3559.06C1852.69 3518.52 1843.99 3468.76 1818.23 3395.81L1814.82 3397.01L1811.4 3398.22C1837 3470.7 1845.45 3519.62 1845.5 3559.07C1845.56 3598.54 1837.24 3628.73 1828.83 3664.19L1832.36 3665.03ZM1814.82 3397.01L1813.58 3393.61C1705.95 3432.75 1666.87 3501.44 1641.65 3542.81L1644.74 3544.7L1647.84 3546.58C1672.91 3505.44 1710.9 3438.66 1816.06 3400.42L1814.82 3397.01ZM1814.82 3397.01L1811.51 3395.53C1802.69 3415.2 1786.6 3455.15 1764.34 3495.25C1742.03 3535.45 1713.91 3575.02 1681.45 3594.26L1683.29 3597.37L1685.14 3600.49C1719.39 3580.2 1748.28 3539.1 1770.68 3498.76C1793.13 3458.31 1809.44 3417.85 1818.12 3398.5L1814.82 3397.01Z" fill="#FBCC70"/>
</g>
<g style="mix-blend-mode:saturation">
<path d="M177.997 1871.27C158.898 1866.53 142.048 1859.38 128.838 1849.01C128.486 1843.45 128.967 1836.23 130.132 1827.84C129.733 1835.07 129.321 1842.15 128.838 1849.01C133.24 1851.15 137.54 1853.22 141.746 1855.2C142.383 1855.5 143.019 1855.8 143.652 1856.1C146.267 1857.32 148.844 1858.52 151.387 1859.68C160.7 1863.95 169.542 1867.8 177.997 1871.27Z" fill="#7BCCFF"/>
<path d="M40.7992 1604.23C43.9316 1615.98 55.9966 1622.97 67.7472 1619.84C79.4977 1616.71 86.484 1604.64 83.3516 1592.89C80.2192 1581.14 68.1542 1574.15 56.4037 1577.29C44.6532 1580.42 37.6668 1592.48 40.7992 1604.23ZM314.345 1931.12C317.477 1942.87 329.542 1949.86 341.292 1946.73C353.043 1943.59 360.029 1931.53 356.897 1919.78C353.765 1908.03 341.7 1901.04 329.949 1904.17C318.199 1907.31 311.212 1919.37 314.345 1931.12ZM362.822 1969.29C365.955 1981.04 378.02 1988.03 389.77 1984.9C401.521 1981.76 408.507 1969.7 405.375 1957.95C402.242 1946.2 390.177 1939.21 378.427 1942.34C366.676 1945.48 359.69 1957.54 362.822 1969.29ZM309.972 1881.19C313.105 1892.94 325.17 1899.93 336.92 1896.8C348.671 1893.67 355.657 1881.6 352.525 1869.85C349.392 1858.1 337.327 1851.11 325.577 1854.25C313.826 1857.38 306.84 1869.44 309.972 1881.19ZM354.873 1901.16C358.005 1912.91 370.07 1919.89 381.821 1916.76C393.571 1913.63 400.558 1901.56 397.425 1889.81C394.293 1878.06 382.228 1871.08 370.477 1874.21C358.727 1877.34 351.741 1889.41 354.873 1901.16ZM326.896 1796.21C330.029 1807.96 342.094 1814.95 353.844 1811.81C365.595 1808.68 372.581 1796.62 369.449 1784.87C366.316 1773.12 354.251 1766.13 342.501 1769.26C330.75 1772.39 323.764 1784.46 326.896 1796.21ZM352.248 1829.05C355.38 1840.8 367.445 1847.79 379.196 1844.65C390.947 1841.52 397.933 1829.46 394.8 1817.71C391.668 1805.95 379.603 1798.97 367.853 1802.1C356.102 1805.23 349.116 1817.3 352.248 1829.05ZM252.844 1760.46C255.977 1772.21 268.042 1779.2 279.792 1776.07C291.543 1772.94 298.529 1760.87 295.397 1749.12C292.264 1737.37 280.199 1730.38 268.449 1733.52C256.698 1736.65 249.712 1748.71 252.844 1760.46ZM291.214 1791.67C294.347 1803.42 306.412 1810.41 318.162 1807.27C329.913 1804.14 336.899 1792.08 333.767 1780.33C330.634 1768.58 318.569 1761.59 306.819 1764.72C295.068 1767.85 288.082 1779.92 291.214 1791.67ZM97.2239 1614.74C100.356 1626.49 112.421 1633.48 124.172 1630.34C135.922 1627.21 142.909 1615.15 139.776 1603.4C136.644 1591.65 124.579 1584.66 112.828 1587.79C101.078 1590.92 94.0915 1602.99 97.2239 1614.74ZM138.945 1603.62C142.077 1615.37 154.142 1622.35 165.893 1619.22C177.643 1616.09 184.63 1604.02 181.497 1592.27C178.365 1580.52 166.3 1573.54 154.549 1576.67C142.799 1579.8 135.813 1591.87 138.945 1603.62ZM123.929 1714.92C127.061 1726.67 139.126 1733.65 150.877 1730.52C162.627 1727.39 169.614 1715.32 166.481 1703.57C163.349 1691.82 151.284 1684.84 139.533 1687.97C127.783 1691.1 120.797 1703.17 123.929 1714.92ZM288.236 1685.56C291.368 1697.31 303.433 1704.3 315.183 1701.17C326.934 1698.04 333.92 1685.97 330.788 1674.22C327.656 1662.47 315.591 1655.48 303.84 1658.62C292.09 1661.75 285.103 1673.81 288.236 1685.56ZM183.213 1717C186.346 1728.75 198.411 1735.73 210.161 1732.6C221.912 1729.47 228.898 1717.4 225.766 1705.65C222.633 1693.9 210.568 1686.92 198.818 1690.05C187.067 1693.18 180.081 1705.25 183.213 1717ZM169.225 1664.52C172.357 1676.27 184.422 1683.26 196.173 1680.13C207.923 1676.99 214.91 1664.93 211.777 1653.18C208.645 1641.43 196.58 1634.44 184.829 1637.57C173.079 1640.71 166.092 1652.77 169.225 1664.52ZM62.0754 1598.56L57.9485 1598.44C57.0678 1628.96 59.3739 1678.1 69.1542 1726.61C78.8975 1774.93 96.2229 1823.49 125.983 1851.99L128.838 1849.01L131.693 1846.02C103.852 1819.37 86.9227 1772.96 77.2485 1724.97C67.6112 1677.17 65.3367 1628.67 66.2023 1598.68L62.0754 1598.56ZM128.838 1849.01L125.457 1846.64C53.3437 1949.51 -72.1409 2115.23 -185.841 2270.09L-182.513 2272.53L-179.185 2274.98C-65.6232 2120.3 60.0421 1954.34 132.219 1851.38L128.838 1849.01ZM128.838 1849.01L126.289 1852.25C170.903 1887.28 244.801 1926.85 335.497 1929.58L335.621 1925.45L335.745 1921.32C247.285 1918.67 175.039 1880.03 131.387 1845.76L128.838 1849.01ZM128.838 1849.01L126.289 1852.25C148.562 1869.74 190.208 1897.87 237.553 1921.98C284.797 1946.04 338.248 1966.37 383.974 1967.75L384.098 1963.62L384.222 1959.49C340.371 1958.18 288.258 1938.53 241.3 1914.62C194.442 1890.76 153.247 1862.92 131.387 1845.76L128.838 1849.01ZM128.838 1849.01L126.289 1852.25C140.101 1863.1 157.546 1870.44 177.002 1875.28L177.997 1871.27L178.993 1867.26C160.25 1862.61 143.995 1855.66 131.387 1845.76L128.838 1849.01ZM177.997 1871.27L177.002 1875.28C222.447 1886.56 280.093 1884.42 331.63 1879.63L331.248 1875.52L330.867 1871.41C279.391 1876.19 222.968 1878.19 178.993 1867.26L177.997 1871.27ZM128.838 1849.01L127.028 1852.72C131.445 1854.87 135.762 1856.94 139.984 1858.94L141.746 1855.2L143.507 1851.47C139.319 1849.49 135.035 1847.44 130.648 1845.3L128.838 1849.01ZM141.746 1855.2L139.984 1858.94C140.625 1859.24 141.263 1859.54 141.899 1859.84L143.652 1856.1L145.405 1852.36C144.774 1852.06 144.142 1851.77 143.507 1851.47L141.746 1855.2ZM143.652 1856.1L141.899 1859.84C144.524 1861.07 147.114 1862.27 149.668 1863.44L151.387 1859.68L153.106 1855.93C150.575 1854.77 148.009 1853.58 145.405 1852.36L143.652 1856.1ZM151.387 1859.68L149.668 1863.44C159.025 1867.72 167.918 1871.59 176.429 1875.09L177.997 1871.27L179.565 1867.45C171.167 1864 162.375 1860.17 153.106 1855.93L151.387 1859.68ZM177.997 1871.27L176.429 1875.09C215.309 1891.05 246.229 1899.09 277.096 1902.16C307.907 1905.22 338.487 1903.32 376.551 1899.59L376.149 1895.49L375.747 1891.38C337.765 1895.09 307.867 1896.92 277.913 1893.94C248.015 1890.97 217.882 1883.18 179.565 1867.45L177.997 1871.27ZM128.838 1849.01L126.289 1852.25C130.856 1855.84 136.391 1858.38 142.554 1860.08L143.652 1856.1L144.75 1852.12C139.37 1850.63 134.897 1848.51 131.387 1845.76L128.838 1849.01ZM143.652 1856.1L142.554 1860.08C157.744 1864.27 177.503 1863.58 198.454 1860.07C219.504 1856.54 242.185 1850.09 263.446 1842.39C284.707 1834.69 304.659 1825.7 320.249 1817.03C328.04 1812.7 334.808 1808.42 340.127 1804.38C345.348 1800.42 349.534 1796.43 351.746 1792.61L348.173 1790.54L344.599 1788.47C343.238 1790.82 340.142 1794 335.134 1797.81C330.224 1801.53 323.814 1805.61 316.238 1809.82C301.094 1818.23 281.553 1827.05 260.633 1834.63C239.713 1842.21 217.526 1848.5 197.089 1851.93C176.555 1855.37 158.21 1855.83 144.75 1852.12L143.652 1856.1ZM128.838 1849.01L126.289 1852.25C132.634 1857.24 140.853 1860.95 150.247 1863.65L151.387 1859.68L152.527 1855.72C143.764 1853.2 136.624 1849.87 131.387 1845.76L128.838 1849.01ZM151.387 1859.68L150.247 1863.65C181.197 1872.54 227.319 1871.05 270.473 1863.62C313.562 1856.21 354.897 1842.69 376.02 1826.67L373.524 1823.38L371.029 1820.09C351.556 1834.86 311.877 1848.13 269.073 1855.49C226.335 1862.84 181.685 1864.09 152.527 1855.72L151.387 1859.68ZM128.838 1849.01L130.619 1852.73C148.696 1844.09 181.043 1828.91 210.935 1811.65C225.88 1803.02 240.311 1793.81 252.09 1784.58C263.761 1775.43 273.268 1765.93 277.829 1756.61L274.12 1754.79L270.412 1752.98C266.708 1760.55 258.453 1769.1 246.996 1778.08C235.647 1786.97 221.585 1795.96 206.805 1804.5C177.248 1821.57 145.217 1836.6 127.057 1845.28L128.838 1849.01ZM128.838 1849.01L126.289 1852.25C130.532 1855.59 135.413 1857.84 140.717 1859.2L141.746 1855.2L142.774 1851.2C138.417 1850.08 134.611 1848.29 131.387 1845.76L128.838 1849.01ZM141.746 1855.2L140.717 1859.2C154.912 1862.85 172.442 1860.23 190.396 1854.68C208.471 1849.09 227.565 1840.34 245.174 1831.1C262.804 1821.84 279.057 1812.02 291.461 1804.22C297.664 1800.33 302.914 1796.93 306.883 1794.37C310.975 1791.73 313.461 1790.15 314.395 1789.66L312.491 1786L310.587 1782.34C309.21 1783.05 306.262 1784.95 302.408 1787.43C298.43 1790 293.222 1793.37 287.068 1797.23C274.758 1804.96 258.703 1814.66 241.335 1823.79C223.947 1832.92 205.353 1841.41 187.957 1846.79C170.439 1852.2 154.714 1854.27 142.774 1851.2L141.746 1855.2ZM118.5 1609.07L114.711 1607.43C100.836 1639.5 100.337 1682.41 104.691 1725.75C109.054 1769.19 118.406 1813.92 124.773 1849.73L128.838 1849.01L132.903 1848.28C126.474 1812.14 117.228 1767.95 112.907 1724.92C108.575 1681.81 109.306 1640.72 122.289 1610.71L118.5 1609.07ZM160.221 1597.95L156.456 1596.25C142.493 1627.31 128.986 1654.64 121.827 1692.23C114.663 1729.84 113.876 1777.5 124.756 1849.62L128.838 1849.01L132.92 1848.39C122.126 1776.84 123.006 1730.17 129.939 1693.77C136.877 1657.34 149.898 1630.98 163.987 1599.64L160.221 1597.95ZM145.205 1709.25L141.266 1708.01C129.995 1743.95 128.177 1788.38 126.01 1827.61L130.132 1827.84L134.254 1828.07C136.444 1788.42 138.255 1745.21 149.145 1710.48L145.205 1709.25ZM130.132 1827.84L126.01 1827.61C125.611 1834.84 125.2 1841.89 124.72 1848.72L128.838 1849.01L132.956 1849.3C133.442 1842.41 133.855 1835.3 134.254 1828.07L130.132 1827.84ZM128.838 1849.01L132.219 1851.38C143.668 1835.04 171.518 1799.11 205.046 1764.21C238.717 1729.15 277.527 1695.78 310.908 1683.78L309.512 1679.89L308.115 1676.01C272.756 1688.72 232.792 1723.4 199.092 1758.49C165.249 1793.72 137.132 1829.98 125.457 1846.64L128.838 1849.01ZM204.489 1711.32L201.578 1708.4C160.606 1749.14 132.404 1808.4 124.783 1848.23L128.838 1849.01L132.893 1849.78C140.209 1811.55 167.634 1753.79 207.4 1714.25L204.489 1711.32ZM128.838 1849.01L132.958 1848.75C132.632 1843.59 133.073 1836.68 134.221 1828.41L130.132 1827.84L126.043 1827.27C124.861 1835.79 124.341 1843.32 124.718 1849.27L128.838 1849.01ZM130.132 1827.84L134.221 1828.41C137.54 1804.5 146.545 1770.67 157.746 1738.7C168.979 1706.64 182.223 1677.04 193.824 1661.3L190.501 1658.85L187.178 1656.4C174.795 1673.2 161.223 1703.81 149.953 1735.97C138.651 1768.22 129.464 1802.62 126.043 1827.27L130.132 1827.84Z" fill="#7BCCFF"/>
<path d="M460.533 1824.06C475.655 1843.86 422.193 1877.05 383.08 1889.82L378.63 1876.19C392.635 1849.66 445.411 1804.26 460.533 1824.06Z" fill="#7BCCFF" stroke="#7BCCFF" stroke-width="0.82572"/>
<path d="M487.253 1889.45C489.879 1914.23 426.954 1914.79 386.904 1905.37L390.184 1891.41C415.94 1876.03 484.627 1864.67 487.253 1889.45Z" fill="#7BCCFF" stroke="#7BCCFF" stroke-width="0.82572"/>
<path d="M184.552 1555.77C209.379 1553.67 208.617 1616.59 198.349 1656.43L184.47 1652.86C169.63 1626.78 159.726 1557.87 184.552 1555.77Z" fill="#7BCCFF" stroke="#7BCCFF" stroke-width="0.82572"/>
<path d="M242.998 1558.7C265.3 1569.81 231.942 1623.16 202.459 1651.86L192.46 1641.6C193.336 1611.61 220.697 1547.59 242.998 1558.7Z" fill="#7BCCFF" stroke="#7BCCFF" stroke-width="0.82572"/>
</g>
<g opacity="0.54" filter="url(#filter15_f_856_1579)">
<circle cx="1553" cy="4524" r="297" fill="url(#paint15_radial_856_1579)" fill-opacity="0.8"/>
</g>
</g>
<defs>
<filter id="filter0_f_856_1579" x="-141.993" y="10144.1" width="1932.18" height="1932.18" filterUnits="userSpaceOnUse" color-interpolation-filters="sRGB">
<feFlood flood-opacity="0" result="BackgroundImageFix"/>
<feBlend mode="normal" in="SourceGraphic" in2="BackgroundImageFix" result="shape"/>
<feGaussianBlur stdDeviation="166.951" result="effect1_foregroundBlur_856_1579"/>
</filter>
<filter id="filter1_f_856_1579" x="947" y="8202" width="878" height="878" filterUnits="userSpaceOnUse" color-interpolation-filters="sRGB">
<feFlood flood-opacity="0" result="BackgroundImageFix"/>
<feBlend mode="normal" in="SourceGraphic" in2="BackgroundImageFix" result="shape"/>
<feGaussianBlur stdDeviation="150" result="effect1_foregroundBlur_856_1579"/>
</filter>
<filter id="filter2_f_856_1579" x="-72" y="9347" width="878" height="878" filterUnits="userSpaceOnUse" color-interpolation-filters="sRGB">
<feFlood flood-opacity="0" result="BackgroundImageFix"/>
<feBlend mode="normal" in="SourceGraphic" in2="BackgroundImageFix" result="shape"/>
<feGaussianBlur stdDeviation="150" result="effect1_foregroundBlur_856_1579"/>
</filter>
<filter id="filter3_f_856_1579" x="1615.52" y="3368.52" width="666.965" height="666.965" filterUnits="userSpaceOnUse" color-interpolation-filters="sRGB">
<feFlood flood-opacity="0" result="BackgroundImageFix"/>
<feBlend mode="normal" in="SourceGraphic" in2="BackgroundImageFix" result="shape"/>
<feGaussianBlur stdDeviation="82.7412" result="effect1_foregroundBlur_856_1579"/>
</filter>
<filter id="filter4_f_856_1579" x="-198" y="782" width="1285" height="1285" filterUnits="userSpaceOnUse" color-interpolation-filters="sRGB">
<feFlood flood-opacity="0" result="BackgroundImageFix"/>
<feBlend mode="normal" in="SourceGraphic" in2="BackgroundImageFix" result="shape"/>
<feGaussianBlur stdDeviation="150" result="effect1_foregroundBlur_856_1579"/>
</filter>
<filter id="filter5_f_856_1579" x="1122" y="2117" width="1651" height="1651" filterUnits="userSpaceOnUse" color-interpolation-filters="sRGB">
<feFlood flood-opacity="0" result="BackgroundImageFix"/>
<feBlend mode="normal" in="SourceGraphic" in2="BackgroundImageFix" result="shape"/>
<feGaussianBlur stdDeviation="150" result="effect1_foregroundBlur_856_1579"/>
</filter>
<filter id="filter6_f_856_1579" x="370" y="2063" width="1651" height="1651" filterUnits="userSpaceOnUse" color-interpolation-filters="sRGB">
<feFlood flood-opacity="0" result="BackgroundImageFix"/>
<feBlend mode="normal" in="SourceGraphic" in2="BackgroundImageFix" result="shape"/>
<feGaussianBlur stdDeviation="150" result="effect1_foregroundBlur_856_1579"/>
</filter>
<filter id="filter7_f_856_1579" x="-355" y="4542" width="1825" height="1825" filterUnits="userSpaceOnUse" color-interpolation-filters="sRGB">
<feFlood flood-opacity="0" result="BackgroundImageFix"/>
<feBlend mode="normal" in="SourceGraphic" in2="BackgroundImageFix" result="shape"/>
<feGaussianBlur stdDeviation="150" result="effect1_foregroundBlur_856_1579"/>
</filter>
<filter id="filter8_f_856_1579" x="-470" y="2863" width="998" height="998" filterUnits="userSpaceOnUse" color-interpolation-filters="sRGB">
<feFlood flood-opacity="0" result="BackgroundImageFix"/>
<feBlend mode="normal" in="SourceGraphic" in2="BackgroundImageFix" result="shape"/>
<feGaussianBlur stdDeviation="150" result="effect1_foregroundBlur_856_1579"/>
</filter>
<filter id="filter9_f_856_1579" x="-283" y="5972" width="878" height="878" filterUnits="userSpaceOnUse" color-interpolation-filters="sRGB">
<feFlood flood-opacity="0" result="BackgroundImageFix"/>
<feBlend mode="normal" in="SourceGraphic" in2="BackgroundImageFix" result="shape"/>
<feGaussianBlur stdDeviation="150" result="effect1_foregroundBlur_856_1579"/>
</filter>
<filter id="filter10_f_856_1579" x="132" y="6931" width="878" height="878" filterUnits="userSpaceOnUse" color-interpolation-filters="sRGB">
<feFlood flood-opacity="0" result="BackgroundImageFix"/>
<feBlend mode="normal" in="SourceGraphic" in2="BackgroundImageFix" result="shape"/>
<feGaussianBlur stdDeviation="150" result="effect1_foregroundBlur_856_1579"/>
</filter>
<filter id="filter11_f_856_1579" x="1371" y="5646" width="878" height="878" filterUnits="userSpaceOnUse" color-interpolation-filters="sRGB">
<feFlood flood-opacity="0" result="BackgroundImageFix"/>
<feBlend mode="normal" in="SourceGraphic" in2="BackgroundImageFix" result="shape"/>
<feGaussianBlur stdDeviation="150" result="effect1_foregroundBlur_856_1579"/>
</filter>
<filter id="filter12_f_856_1579" x="402" y="1647" width="1055" height="1055" filterUnits="userSpaceOnUse" color-interpolation-filters="sRGB">
<feFlood flood-opacity="0" result="BackgroundImageFix"/>
<feBlend mode="normal" in="SourceGraphic" in2="BackgroundImageFix" result="shape"/>
<feGaussianBlur stdDeviation="150" result="effect1_foregroundBlur_856_1579"/>
</filter>
<filter id="filter13_f_856_1579" x="1449.33" y="7011.33" width="652.822" height="652.822" filterUnits="userSpaceOnUse" color-interpolation-filters="sRGB">
<feFlood flood-opacity="0" result="BackgroundImageFix"/>
<feBlend mode="normal" in="SourceGraphic" in2="BackgroundImageFix" result="shape"/>
<feGaussianBlur stdDeviation="111.525" result="effect1_foregroundBlur_856_1579"/>
</filter>
<filter id="filter14_f_856_1579" x="1378" y="887" width="922" height="922" filterUnits="userSpaceOnUse" color-interpolation-filters="sRGB">
<feFlood flood-opacity="0" result="BackgroundImageFix"/>
<feBlend mode="normal" in="SourceGraphic" in2="BackgroundImageFix" result="shape"/>
<feGaussianBlur stdDeviation="150" result="effect1_foregroundBlur_856_1579"/>
</filter>
<filter id="filter15_f_856_1579" x="956" y="3927" width="1194" height="1194" filterUnits="userSpaceOnUse" color-interpolation-filters="sRGB">
<feFlood flood-opacity="0" result="BackgroundImageFix"/>
<feBlend mode="normal" in="SourceGraphic" in2="BackgroundImageFix" result="shape"/>
<feGaussianBlur stdDeviation="150" result="effect1_foregroundBlur_856_1579"/>
</filter>
<radialGradient id="paint0_radial_856_1579" cx="0" cy="0" r="1" gradientUnits="userSpaceOnUse" gradientTransform="translate(632.187 632.187) rotate(90) scale(632.187)">
<stop stop-color="#7BCCFF"/>
<stop offset="1" stop-color="#C07BFF" stop-opacity="0.22"/>
</radialGradient>
<radialGradient id="paint1_radial_856_1579" cx="0" cy="0" r="1" gradientUnits="userSpaceOnUse" gradientTransform="translate(1386 8641) rotate(90) scale(139)">
<stop stop-color="#C07BFF"/>
<stop offset="1" stop-color="#7BCCFF" stop-opacity="0.26"/>
</radialGradient>
<radialGradient id="paint2_radial_856_1579" cx="0" cy="0" r="1" gradientUnits="userSpaceOnUse" gradientTransform="translate(367 9786) rotate(90) scale(139)">
<stop stop-color="#C07BFF"/>
<stop offset="1" stop-color="#7BCCFF" stop-opacity="0.26"/>
</radialGradient>
<radialGradient id="paint3_radial_856_1579" cx="0" cy="0" r="1" gradientUnits="userSpaceOnUse" gradientTransform="translate(168 168) rotate(90) scale(168)">
<stop stop-color="#C07BFF"/>
<stop offset="1" stop-color="#C07BFF" stop-opacity="0.45"/>
</radialGradient>
<radialGradient id="paint4_radial_856_1579" cx="0" cy="0" r="1" gradientUnits="userSpaceOnUse" gradientTransform="translate(444.5 1424.5) rotate(90) scale(342.5)">
<stop stop-color="#C07BFF"/>
<stop offset="1" stop-color="#7BCCFF" stop-opacity="0.18"/>
</radialGradient>
<radialGradient id="paint5_radial_856_1579" cx="0" cy="0" r="1" gradientUnits="userSpaceOnUse" gradientTransform="translate(1947.5 2942.5) rotate(90) scale(525.5)">
<stop offset="0.346154" stop-color="#C07BFF"/>
<stop offset="1" stop-color="#7BCCFF" stop-opacity="0.16"/>
</radialGradient>
<radialGradient id="paint6_radial_856_1579" cx="0" cy="0" r="1" gradientUnits="userSpaceOnUse" gradientTransform="translate(1195.5 2888.5) rotate(90) scale(525.5)">
<stop offset="0.346154" stop-color="#C07BFF"/>
<stop offset="1" stop-color="#7BCCFF" stop-opacity="0.16"/>
</radialGradient>
<radialGradient id="paint7_radial_856_1579" cx="0" cy="0" r="1" gradientUnits="userSpaceOnUse" gradientTransform="translate(557.5 5454.5) rotate(90) scale(612.5)">
<stop stop-color="#C07BFF"/>
<stop offset="1" stop-color="#7BCCFF" stop-opacity="0.16"/>
</radialGradient>
<radialGradient id="paint8_radial_856_1579" cx="0" cy="0" r="1" gradientUnits="userSpaceOnUse" gradientTransform="translate(29 3362) rotate(90) scale(199)">
<stop stop-color="#C07BFF"/>
<stop offset="1" stop-color="#7BCCFF" stop-opacity="0.66"/>
</radialGradient>
<radialGradient id="paint9_radial_856_1579" cx="0" cy="0" r="1" gradientUnits="userSpaceOnUse" gradientTransform="translate(156 6411) rotate(90) scale(139)">
<stop stop-color="#C07BFF"/>
<stop offset="1" stop-color="#7BCCFF" stop-opacity="0.4"/>
</radialGradient>
<radialGradient id="paint10_radial_856_1579" cx="0" cy="0" r="1" gradientUnits="userSpaceOnUse" gradientTransform="translate(571 7370) rotate(90) scale(139)">
<stop stop-color="#C07BFF"/>
<stop offset="1" stop-color="#7BCCFF" stop-opacity="0.26"/>
</radialGradient>
<radialGradient id="paint11_radial_856_1579" cx="0" cy="0" r="1" gradientUnits="userSpaceOnUse" gradientTransform="translate(1810 6085) rotate(90) scale(139)">
<stop stop-color="#C07BFF"/>
<stop offset="1" stop-color="#7BCCFF" stop-opacity="0.26"/>
</radialGradient>
<radialGradient id="paint12_radial_856_1579" cx="0" cy="0" r="1" gradientUnits="userSpaceOnUse" gradientTransform="translate(929.5 2174.5) rotate(90) scale(227.5)">
<stop stop-color="#C07BFF"/>
<stop offset="1" stop-color="#C07BFF" stop-opacity="0.5"/>
</radialGradient>
<radialGradient id="paint13_radial_856_1579" cx="0" cy="0" r="1" gradientUnits="userSpaceOnUse" gradientTransform="translate(1775.74 7337.74) rotate(90) scale(103.346)">
<stop stop-color="#C07BFF"/>
<stop offset="1" stop-color="#7BCCFF" stop-opacity="0.46"/>
</radialGradient>
<radialGradient id="paint14_radial_856_1579" cx="0" cy="0" r="1" gradientUnits="userSpaceOnUse" gradientTransform="translate(1839 1348) rotate(90) scale(161)">
<stop stop-color="#C07BFF"/>
<stop offset="1" stop-color="#C07BFF" stop-opacity="0.68"/>
</radialGradient>
<radialGradient id="paint15_radial_856_1579" cx="0" cy="0" r="1" gradientUnits="userSpaceOnUse" gradientTransform="translate(1553 4524) rotate(90) scale(297)">
<stop stop-color="#7BCCFF"/>
<stop offset="1" stop-color="#7BCCFF" stop-opacity="0.16"/>
</radialGradient>
<clipPath id="clip0_856_1579">
<rect width="1920" height="11858" fill="white"/>
</clipPath>
</defs>
</svg>
